<svg width="48" height="48" viewBox="0 0 48 48" fill="black" xmlns="http://www.w3.org/2000/svg">
<path d="M43.9398 28C41.4898 25.79 38.1698 22.43 37.0598 20.85C36.8598 20.57 36.5898 20.35 36.2798 20.2C35.3198 19.74 34.1698 20.12 33.6698 21.06C33.3798 21.59 32.0798 23.5 31.2098 24.76C30.7898 25.37 30.4598 25.86 30.3398 26.04C30.0498 26.51 29.7298 26.96 29.3798 27.39C28.8198 28.04 27.9098 28.78 26.6698 29.59C25.6598 30.25 24.5298 30.9 23.4198 31.54C22.7598 31.92 22.0098 32.35 21.3198 32.77C20.3398 33.37 19.6698 33.83 19.1398 34.28C18.5198 34.82 18.0798 35.31 17.8898 35.98C17.7398 36.56 17.6398 37.09 17.5498 37.56C17.4498 38.04 17.3698 38.46 17.2698 38.8C17.1998 39.09 17.0698 39.36 16.9098 39.61C16.7498 39.84 16.5398 40.03 16.3098 40.17C16.0898 40.28 15.8498 40.35 15.5998 40.36C14.8698 40.41 13.9398 40.19 13.5698 40.09C12.5498 39.81 11.4698 39.8 10.4498 40.05C10.3998 40.06 10.3498 40.08 10.2998 40.11C8.67984 40.94 6.76984 41.07 5.04984 40.48L4.09984 40.12C3.96984 40.07 3.29984 39.82 3.10984 39.32C3.01984 39.1 3.04984 38.86 3.18984 38.61C3.19984 38.6 3.20984 38.59 3.22984 38.58L7.60984 37.62C7.65984 37.61 7.70984 37.59 7.75984 37.57C7.99984 37.45 9.29984 36.82 10.7598 36.02C11.6898 35.52 12.4998 35.04 13.1798 34.61C14.0798 34.03 14.6698 33.59 15.0898 33.18C15.2998 32.97 15.9198 32.32 16.9798 31.17C17.0298 31.22 17.0798 31.27 17.1298 31.3L18.9698 32.41C19.2198 32.57 19.5698 32.54 19.8098 32.35L30.5098 23.45C30.6898 23.3 30.7898 23.07 30.7698 22.84C30.7498 22.61 30.6298 22.4 30.4298 22.27L26.9898 20.13C28.7198 18.17 30.1198 16.56 31.0098 15.54C31.5398 14.93 32.4898 14.48 33.8898 14.19C35.6498 13.82 37.0798 14.42 38.2498 15.05C38.2998 15.08 38.3398 15.1 38.3598 15.11L43.0598 17.72C43.2198 17.81 43.4098 17.83 43.5898 17.77C43.7698 17.72 43.9098 17.6 43.9998 17.44C44.0898 17.28 44.1098 17.09 44.0498 16.91C43.9998 16.73 43.8798 16.59 43.7198 16.5L39.1798 13.98C39.1698 13.97 39.1598 13.97 39.1498 13.95L38.0298 11.88C37.8598 11.54 37.4498 11.4 37.1098 11.56C36.7698 11.73 36.6298 12.14 36.7998 12.49C36.9398 12.74 37.0598 12.94 37.1598 13.1C36.8298 12.97 36.0698 12.76 35.9098 12.72C34.4298 12.39 32.5198 12.79 31.0798 13.72L30.9498 12.01C30.7498 9.22997 32.4498 7.36997 35.3898 7.14997C36.7698 7.04997 38.1398 7.60997 39.0398 8.64997L43.1498 13.92C43.2598 14.05 43.4298 14.13 43.6098 14.14C43.7898 14.15 43.9698 14.09 44.1098 13.97C44.3998 13.72 44.4298 13.28 44.1798 13L40.0698 7.72997C38.8798 6.36997 37.0998 5.63997 35.2798 5.76997C33.4798 5.89997 31.9798 6.56997 30.9498 7.71997C29.9198 8.85997 29.4398 10.38 29.5598 12.1L29.7598 14.85C28.8298 15.92 27.3498 17.62 25.5198 19.69C25.4198 19.75 25.3398 19.83 25.2798 19.92C25.2598 19.95 25.2598 19.97 25.2498 20C24.0698 21.33 22.7998 22.77 21.4598 24.26C21.0998 24.65 20.3998 25.41 19.5598 26.32C17.5998 28.45 14.6298 31.67 14.1098 32.19C13.7998 32.5 13.1898 32.95 12.4398 33.43C11.2898 34.16 9.91984 34.9 8.96984 35.39C8.41984 35.68 7.94984 35.91 7.65984 36.05L7.24984 36.3L2.15984 37.42C1.84984 37.49 1.63984 38.49 1.66984 38.86C1.76984 40.22 2.35984 40.99 3.64984 41.43L4.61984 41.76C5.46984 42.05 6.36984 42.2 7.25984 42.2C8.49984 42.2 9.73984 41.92 10.8398 41.36C11.0898 41.3 11.3498 41.26 11.6098 41.24C12.1598 41.2 12.6998 41.25 13.2298 41.39C13.8498 41.56 14.7798 41.76 15.7098 41.7C16.1798 41.68 16.6298 41.55 17.0398 41.32C17.4498 41.08 17.8098 40.75 18.0698 40.36C18.4698 39.76 18.6398 39.09 18.7798 38.5C18.8298 38.27 18.8798 38.03 18.9298 37.75C19.0198 37.28 19.1198 36.8 19.2498 36.28C19.2798 36.14 19.4298 35.91 19.6298 35.7C19.9998 35.29 20.7098 34.76 21.6598 34.16C22.3998 33.69 23.2298 33.22 24.1098 32.71C24.7998 32.32 25.5698 31.87 26.3098 31.42C27.7598 30.54 29.3798 29.48 30.4298 28.27C30.8198 27.8 31.1798 27.29 31.4998 26.76C31.6898 26.46 31.9098 26.14 32.1698 25.75L32.4698 31.96L30.7498 37.83L28.7898 40.1C28.5398 40.39 28.5698 40.82 28.8598 41.07C28.8998 41.11 28.9498 41.14 28.9998 41.16C29.9798 41.65 31.0498 41.89 32.0498 41.81C33.1998 41.73 34.2898 41.17 35.0298 40.29C35.6198 39.6 36.1198 38.72 36.5998 37.86C37.0298 37.09 37.4398 36.36 37.8698 35.86C38.2298 35.45 38.6298 35.09 39.0698 34.78C39.5898 34.41 40.0598 33.98 40.4798 33.5C40.8598 33.06 41.0498 32.48 40.9998 31.9C40.8798 30.33 39.2498 28.75 38.0298 27.69C38.0198 27.68 38.0098 27.67 38.0098 27.66L37.9198 23.83C39.2698 25.32 40.8098 27.01 43.0098 29C43.2898 29.26 43.7298 29.25 43.9898 28.97C44.2498 28.69 44.2298 28.26 43.9598 28H43.9398ZM33.4698 24.03C33.4698 24 33.4598 23.97 33.4498 23.94C34.0598 23.06 34.5398 22.34 34.8798 21.72C34.9598 21.57 35.0898 21.47 35.2498 21.42C35.4098 21.37 35.5698 21.39 35.7198 21.47C35.7498 21.49 35.9598 21.72 36.5998 22.41C36.5398 22.52 36.5198 22.64 36.5198 22.76L36.6698 28.1C36.6798 28.28 36.7698 28.45 36.9098 28.57L37.0198 28.67C38.7198 30.12 39.5698 31.22 39.6298 32.04C39.6498 32.25 39.5798 32.47 39.4298 32.63C39.0798 33.03 38.6798 33.39 38.2298 33.7C37.7098 34.07 37.2398 34.5 36.8198 34.98C36.2998 35.58 35.8598 36.37 35.3898 37.21C34.9398 38.01 34.4798 38.83 33.9798 39.41C32.9098 40.65 31.5198 40.58 30.5498 40.31C30.5298 40.31 30.5198 40.29 30.5098 40.27C30.4998 40.25 30.5098 40.23 30.5198 40.22L31.8898 38.63C31.9498 38.56 31.9998 38.47 32.0298 38.37L33.8198 32.23C33.8398 32.15 33.8498 32.07 33.8498 31.99L33.4698 24.03ZM28.7998 23L19.2698 30.92L17.9498 30.13C18.8598 29.14 19.8398 28.09 20.6498 27.21L21.8998 25.86C21.9098 25.85 21.9298 25.83 21.9698 25.81L22.5198 25.19C23.7398 23.82 24.9198 22.51 26.0098 21.27L28.7998 23Z" />
</svg>
