<svg width="48" height="48" viewBox="0 0 48 48" fill="black" xmlns="http://www.w3.org/2000/svg">
<path d="M38.0901 15.01C37.7901 14.79 30.7101 9.67998 25.3601 9.74998C20.0601 9.81998 3.32009 20.31 2.61009 20.76C2.42009 20.88 2.30009 21.08 2.28009 21.3C2.26009 21.52 2.35009 21.74 2.52009 21.88L4.76009 23.8C4.89009 23.91 5.05009 23.97 5.22009 23.97C5.36009 23.97 5.50009 23.93 5.62009 23.85C5.77009 23.75 20.4101 13.72 25.3601 13.72H25.3701C30.4001 13.73 37.3801 16.22 37.4501 16.24C37.7801 16.36 38.1401 16.22 38.3101 15.91C38.4601 15.6 38.3801 15.22 38.0901 15.01ZM25.3701 12.31H25.3601C20.4401 12.31 7.85009 20.64 5.27009 22.39L4.16009 21.44C10.3001 17.63 21.6201 11.2 25.3801 11.15C25.4101 11.15 25.4401 11.15 25.4701 11.15C27.7301 11.15 30.4301 12.22 32.6801 13.37C30.3901 12.81 27.7201 12.32 25.3701 12.31Z" />
<path d="M37.02 30.2699C35.53 30.1299 34.61 29.0299 34.14 28.2499C34.71 28.0399 35.25 27.8799 35.75 27.8199H36.39C36.78 27.8199 37.09 27.5099 37.09 27.1199C37.09 26.7299 36.78 26.4199 36.39 26.4199L35.66 26.4299C33.48 26.7199 31.12 28.0799 28.61 29.5199C25.79 31.1399 22.87 32.8199 20.33 32.8299C20.31 32.8299 20.29 32.8299 20.27 32.8299C15.45 32.8299 7.53002 29.6999 7.45002 29.6699C7.27002 29.5999 7.07002 29.5999 6.90002 29.6899L4.61002 30.7499C4.26002 30.9099 4.11002 31.3299 4.27002 31.6799C4.43002 32.0299 4.85002 32.1799 5.20002 32.0199L7.22002 31.0799C8.60002 31.6099 14.52 33.7999 19.05 34.1699C19.31 36.2599 20.4 37.6699 22.1 38.0599C22.15 38.0699 22.2 38.0799 22.26 38.0799C22.58 38.0799 22.87 37.8599 22.94 37.5399C23.03 37.1599 22.79 36.7899 22.41 36.6999C21.1 36.3999 20.63 35.2199 20.46 34.2299C21.44 34.2099 22.43 33.9899 23.44 33.6499C24.22 35.0799 25.88 37.4399 28.51 38.0699C28.56 38.0799 28.62 38.0899 28.67 38.0899C28.99 38.0899 29.27 37.8699 29.35 37.5499C29.44 37.1699 29.21 36.7999 28.83 36.7099C26.81 36.2199 25.45 34.3699 24.75 33.1399C25.55 32.7899 26.35 32.3799 27.15 31.9499C27.91 33.5799 29.87 36.9399 33.15 37.3599C33.18 37.3599 33.21 37.3699 33.24 37.3699C33.59 37.3699 33.89 37.1099 33.93 36.7599C33.98 36.3799 33.71 36.0299 33.33 35.9799C30.64 35.6299 28.95 32.5099 28.37 31.2699C28.67 31.0999 28.98 30.9199 29.28 30.7499C29.55 30.5899 29.83 30.4399 30.1 30.2799C30.64 31.6299 32.01 34.1799 34.95 34.7499C34.99 34.7599 35.04 34.7599 35.08 34.7599C35.41 34.7599 35.7 34.5299 35.77 34.1899C35.84 33.8099 35.6 33.4399 35.22 33.3699C32.82 32.9099 31.72 30.6399 31.33 29.5899C31.84 29.3099 32.33 29.0599 32.81 28.8299C33.39 29.8399 34.66 31.4799 36.86 31.6799C36.88 31.6799 36.9 31.6799 36.93 31.6799C37.29 31.6799 37.59 31.4099 37.63 31.0499C37.69 30.6399 37.41 30.2999 37.02 30.2699Z" />
<path d="M12.41 23.8199C12.46 23.7799 17.37 19.9799 22.24 20.1199C27.2 20.2499 30.84 22.5499 30.88 22.5699C31.2 22.7799 31.64 22.6799 31.85 22.3599C32.06 22.0299 31.96 21.5999 31.64 21.3899C31.48 21.2899 27.65 18.8599 22.28 18.7199C16.88 18.5899 11.76 22.5499 11.55 22.7199C11.25 22.9599 11.2 23.3999 11.43 23.6999C11.57 23.8799 11.77 23.9699 11.98 23.9699C12.13 23.9699 12.29 23.9199 12.41 23.8199Z" />
<path d="M43.2498 27.2801C43.0698 27.2801 42.8898 27.2101 42.7498 27.0701C42.4798 26.8001 42.4798 26.3501 42.7498 26.0801L43.9598 24.8801L43.1498 24.0701L40.7798 23.0801C40.6098 23.0101 40.4698 22.8701 40.3998 22.7001L39.4198 20.3201L38.3098 19.2001L37.0998 20.4001C36.8198 20.6701 36.3798 20.6701 36.1098 20.4001C35.8398 20.1301 35.8398 19.6801 36.1098 19.4101L36.6498 18.8701L35.7598 17.9801L33.0698 17.2301C32.6998 17.1301 32.4798 16.7401 32.5798 16.3701C32.6798 16.0001 33.0698 15.7801 33.4398 15.8801L36.2998 16.6801C36.4198 16.7101 36.5198 16.7801 36.6098 16.8601L37.6298 17.8801L37.7898 17.7201C37.9198 17.5901 38.0998 17.5201 38.2798 17.5201C38.4698 17.5201 38.6398 17.6001 38.7698 17.7301L40.4698 19.4501C40.5298 19.5201 40.5898 19.5901 40.6198 19.6801L41.5398 21.9201L43.7698 22.8601C43.8498 22.9001 43.9298 22.9501 43.9998 23.0101L45.3998 24.4201C45.5298 24.5501 45.5998 24.7301 45.5998 24.9201C45.5998 25.1101 45.5198 25.2801 45.3898 25.4101L43.6898 27.1001C43.6098 27.2201 43.4298 27.2801 43.2498 27.2801Z" />
<path d="M41.5498 28.9801C41.3698 28.9801 41.1898 28.9101 41.0498 28.7701L39.6498 27.3601C39.5898 27.2901 39.5298 27.2201 39.4998 27.1301L38.5798 24.8901L36.3498 23.9501C36.2698 23.9101 36.1898 23.8601 36.1198 23.8001L34.4198 22.0801C34.1498 21.8101 34.1498 21.3601 34.4198 21.0901L34.5798 20.9301L33.5598 19.9101C33.4698 19.8201 33.4098 19.7201 33.3798 19.6001L32.5998 16.7301C32.4998 16.3601 32.7198 15.9701 33.0898 15.8701C33.4598 15.7701 33.8498 15.9901 33.9498 16.3601L34.6798 19.0501L35.5698 19.9401L36.1198 19.4001C36.3898 19.1301 36.8398 19.1301 37.1098 19.4001C37.3798 19.6701 37.3798 20.1201 37.1098 20.3901L36.0698 21.4201L36.0598 21.4301L35.9098 21.5801L37.0198 22.7001L39.3898 23.6901C39.5598 23.7601 39.6998 23.9001 39.7698 24.0701L40.7498 26.4501L41.5598 27.2701L42.7698 26.0701C43.0398 25.8001 43.4898 25.8001 43.7598 26.0701C44.0298 26.3401 44.0298 26.7901 43.7598 27.0601L42.0598 28.7501C41.8998 28.9101 41.7198 28.9801 41.5498 28.9801Z" />
<path d="M44.9499 38.96C44.7699 38.96 44.5899 38.89 44.4499 38.75L41.5699 35.85C41.4799 35.75 41.4099 35.63 41.3799 35.5L40.0999 29.44C40.0199 29.35 39.9699 29.24 39.9499 29.11C39.9099 28.88 39.9799 28.65 40.1499 28.49L41.2499 27.39C41.5199 27.12 41.9699 27.12 42.2399 27.39C42.5099 27.66 42.5099 28.11 42.2399 28.38L41.4799 29.14L42.7199 35.01L45.4499 37.76C45.7199 38.03 45.7199 38.48 45.4499 38.75C45.3099 38.89 45.1299 38.96 44.9499 38.96Z" />
</svg>
