<svg width="40" height="40" viewBox="0 0 40 40" fill="none" xmlns="http://www.w3.org/2000/svg">
<path d="M6.44827 20.4657L2.89645 32.9999L1 7.00073L6.44827 20.4657Z" fill="#FA835F"/>
<path d="M15.5735 20.8823V20.8983L13.4039 27.4142L11.5396 32.9992L7.16809 22.2143L7.15202 22.1983V22.1662L6.46094 20.4971V20.465L10.286 7L15.5735 20.8823Z" fill="#FA835F"/>
<path d="M24.8188 20.8983L20.2062 32.9992L15.5776 20.8823L20.2062 7L24.8188 20.8983Z" fill="#FA835F"/>
<path d="M33.9485 20.465L28.8538 32.9992L24.8198 20.8983L30.1234 7L33.9485 20.465Z" fill="#FA835F"/>
<path d="M39.4106 7L38.1249 24.6377L37.5142 32.9992L33.9463 20.465L39.4106 7Z" fill="#FA835F"/>
<path d="M33.9463 20.4636L33.9624 20.6081L34.8624 32.9978L33.9463 20.4636Z" fill="url(#paint0_linear)"/>
<path d="M11.5362 32.9978H2.88965C2.90572 32.9657 2.92179 32.9015 2.93786 32.8373L2.97001 32.6929L6.44147 20.4636L6.45754 20.4957L7.13255 22.1648L7.14862 22.1969V22.213L11.5362 32.9978Z" fill="#E86D48"/>
<path d="M20.2051 32.9999H11.5425L15.5765 20.8831L20.2051 32.9999Z" fill="#E86D48"/>
<path d="M28.8526 32.999H20.2061L24.8186 20.8982L28.8526 32.999Z" fill="#E86D48"/>
<path d="M37.5107 32.9978L33.975 20.5599L33.9428 20.4636L31.2267 27.1399L28.8481 32.9978H28.9285H34.0553H34.8589H37.5107Z" fill="#E86D48"/>
<defs>
<linearGradient id="paint0_linear" x1="33.611" y1="26.6795" x2="35.0313" y2="26.7723" gradientUnits="userSpaceOnUse">
<stop stop-color="#0B34EF"/>
<stop offset="1" stop-color="#0B34EF" stop-opacity="0"/>
</linearGradient>
</defs>
</svg>
