<?xml version="1.0" encoding="UTF-8"?>
<svg width="35px" height="35px" viewBox="0 0 35 35" version="1.1" xmlns="http://www.w3.org/2000/svg" xmlns:xlink="http://www.w3.org/1999/xlink">
    <!-- Generator: sketchtool 55 (78076) - https://sketchapp.com -->
    <title>CE6D7444-2497-4746-92EF-DB73D39B1EDC</title>
    <desc>Created with sketchtool.</desc>
    <g id="Page-1" stroke="none" stroke-width="1" fill="none" fill-rule="evenodd">
        <g id="Main" transform="translate(-703.000000, -959.000000)" fill="#FFFFFF" fill-rule="nonzero">
            <g id="arrow" transform="translate(703.000000, 959.000000)">
                <path d="M17.5,0.869330454 C26.7224622,0.869330454 34.1684665,8.35313175 34.1684665,17.537797 C34.1684665,26.7602592 26.7224622,34.2062635 17.5,34.2062635 C8.31533477,34.2062635 0.831533477,26.7602592 0.831533477,17.537797 C0.831533477,8.35313175 8.31533477,0.869330454 17.5,0.869330454 L17.5,0.869330454 Z M17.5,0 C7.82397408,0 0,7.86177106 0,17.5 C0,27.1760259 7.86177106,35 17.5,35 C27.1760259,35 35,27.1382289 35,17.5 C35,7.86177106 27.1382289,0 17.5,0 L17.5,0 Z" id="Shape" fill-opacity="0.5"></path>
                <polygon id="Path" transform="translate(17.500000, 18.000000) scale(-1, -1) translate(-17.500000, -18.000000) " points="12 14.5384615 12.969375 15.5146154 16.8125 11.6515385 16.8125 27 18.1875 27 18.1875 11.6515385 22.02375 15.5215385 23 14.5384615 17.5 9"></polygon>
            </g>
        </g>
    </g>
</svg>