<?xml version="1.0" encoding="UTF-8"?>
<svg width="86px" height="86px" viewBox="0 0 86 86" version="1.1" xmlns="http://www.w3.org/2000/svg" xmlns:xlink="http://www.w3.org/1999/xlink">
    <!-- Generator: sketchtool 57.1 (101010) - https://sketch.com -->
    <title>A4C4BAE5-D9FA-4CFE-8FCB-21624DD2AD30</title>
    <desc>Created with sketchtool.</desc>
    <defs>
        <circle id="path-1" cx="40" cy="40" r="40"></circle>
        <filter x="-6.2%" y="-5.0%" width="112.5%" height="112.5%" filterUnits="objectBoundingBox" id="filter-2">
            <feOffset dx="0" dy="1" in="SourceAlpha" result="shadowOffsetOuter1"></feOffset>
            <feGaussianBlur stdDeviation="1.5" in="shadowOffsetOuter1" result="shadowBlurOuter1"></feGaussianBlur>
            <feColorMatrix values="0 0 0 0 0   0 0 0 0 0   0 0 0 0 0  0 0 0 0.2 0" type="matrix" in="shadowBlurOuter1"></feColorMatrix>
        </filter>
        <linearGradient x1="45.0674091%" y1="31.4259259%" x2="52.1765049%" y2="69.1790123%" id="linearGradient-3">
            <stop stop-color="#0B67F9" offset="0%"></stop>
            <stop stop-color="#0B65F9" offset="40%"></stop>
            <stop stop-color="#0B5DF7" offset="62%"></stop>
            <stop stop-color="#0B4FF4" offset="80%"></stop>
            <stop stop-color="#0B3CF0" offset="95%"></stop>
            <stop stop-color="#0B34EF" offset="100%"></stop>
        </linearGradient>
        <linearGradient x1="48.9499149%" y1="-0.481451762%" x2="50.6737415%" y2="86.5193507%" id="linearGradient-4">
            <stop stop-color="#0B67F9" offset="0%"></stop>
            <stop stop-color="#0B65F9" offset="40%"></stop>
            <stop stop-color="#0B5DF7" offset="62%"></stop>
            <stop stop-color="#0B4FF4" offset="80%"></stop>
            <stop stop-color="#0B3CF0" offset="95%"></stop>
            <stop stop-color="#0B34EF" offset="100%"></stop>
        </linearGradient>
        <linearGradient x1="50%" y1="2.4381211%" x2="50%" y2="89.5747176%" id="linearGradient-5">
            <stop stop-color="#0B67F9" offset="0%"></stop>
            <stop stop-color="#0B64F8" offset="34%"></stop>
            <stop stop-color="#0B5BF7" offset="58%"></stop>
            <stop stop-color="#0B4BF4" offset="80%"></stop>
            <stop stop-color="#0B35EF" offset="99%"></stop>
            <stop stop-color="#0B34EF" offset="100%"></stop>
        </linearGradient>
        <linearGradient x1="50.377425%" y1="7.60446886%" x2="49.6506926%" y2="94.6484785%" id="linearGradient-6">
            <stop stop-color="#0B67F9" offset="0%"></stop>
            <stop stop-color="#0B65F9" offset="40%"></stop>
            <stop stop-color="#0B5DF7" offset="62%"></stop>
            <stop stop-color="#0B4FF4" offset="80%"></stop>
            <stop stop-color="#0B3CF0" offset="95%"></stop>
            <stop stop-color="#0B34EF" offset="100%"></stop>
        </linearGradient>
        <linearGradient x1="50.0557011%" y1="21.8258132%" x2="49.2357292%" y2="80.6740325%" id="linearGradient-7">
            <stop stop-color="#0B67F9" offset="0%"></stop>
            <stop stop-color="#0B65F9" offset="40%"></stop>
            <stop stop-color="#0B5DF7" offset="62%"></stop>
            <stop stop-color="#0B4FF4" offset="80%"></stop>
            <stop stop-color="#0B3CF0" offset="95%"></stop>
            <stop stop-color="#0B34EF" offset="100%"></stop>
        </linearGradient>
        <linearGradient x1="17.9654214%" y1="51.1393747%" x2="55.2327399%" y2="49.8145204%" id="linearGradient-8">
            <stop stop-color="#0B34EF" offset="0%"></stop>
            <stop stop-color="#0B34EF" stop-opacity="0.96" offset="9%"></stop>
            <stop stop-color="#0B34EF" stop-opacity="0.86" offset="23%"></stop>
            <stop stop-color="#0B34EF" stop-opacity="0.7" offset="42%"></stop>
            <stop stop-color="#0B34EF" stop-opacity="0.47" offset="63%"></stop>
            <stop stop-color="#0B34EF" stop-opacity="0.18" offset="86%"></stop>
            <stop stop-color="#0B34EF" stop-opacity="0" offset="100%"></stop>
        </linearGradient>
        <linearGradient x1="17.7254996%" y1="49.3110758%" x2="54.5443546%" y2="53.9480657%" id="linearGradient-9">
            <stop stop-color="#0B34EF" offset="0%"></stop>
            <stop stop-color="#0B34EF" stop-opacity="0.97" offset="9%"></stop>
            <stop stop-color="#0B34EF" stop-opacity="0.88" offset="23%"></stop>
            <stop stop-color="#0B34EF" stop-opacity="0.74" offset="39%"></stop>
            <stop stop-color="#0B34EF" stop-opacity="0.55" offset="58%"></stop>
            <stop stop-color="#0B34EF" stop-opacity="0.29" offset="79%"></stop>
            <stop stop-color="#0B34EF" stop-opacity="0" offset="100%"></stop>
        </linearGradient>
        <linearGradient x1="19.5874533%" y1="49.3089327%" x2="50.8959033%" y2="53.7880727%" id="linearGradient-10">
            <stop stop-color="#0B34EF" offset="0%"></stop>
            <stop stop-color="#0B34EF" stop-opacity="0.91" offset="12%"></stop>
            <stop stop-color="#0B34EF" stop-opacity="0.66" offset="38%"></stop>
            <stop stop-color="#0B34EF" stop-opacity="0.28" offset="75%"></stop>
            <stop stop-color="#0B34EF" stop-opacity="0" offset="100%"></stop>
        </linearGradient>
        <linearGradient x1="43.8789538%" y1="49.6481126%" x2="53.6590206%" y2="51.5674984%" id="linearGradient-11">
            <stop stop-color="#0B34EF" offset="0%"></stop>
            <stop stop-color="#0B34EF" stop-opacity="0.5" offset="47%"></stop>
            <stop stop-color="#0B34EF" stop-opacity="0.14" offset="84%"></stop>
            <stop stop-color="#0B34EF" stop-opacity="0" offset="100%"></stop>
        </linearGradient>
        <linearGradient x1="65.3060635%" y1="109.610955%" x2="31.7923548%" y2="41.3616586%" id="linearGradient-12">
            <stop stop-color="#0B67F9" offset="0%"></stop>
            <stop stop-color="#0B6CF7" offset="38%"></stop>
            <stop stop-color="#0B7BF2" offset="83%"></stop>
            <stop stop-color="#0B82EF" offset="100%"></stop>
        </linearGradient>
        <linearGradient x1="69.2477664%" y1="100.45045%" x2="20.0033581%" y2="24.8012719%" id="linearGradient-13">
            <stop stop-color="#0B67F9" offset="0%"></stop>
            <stop stop-color="#0B6AF8" offset="41%"></stop>
            <stop stop-color="#0B74F4" offset="74%"></stop>
            <stop stop-color="#0B82EF" offset="100%"></stop>
        </linearGradient>
        <linearGradient x1="66.6418125%" y1="109.644939%" x2="22.6889051%" y2="17.6603074%" id="linearGradient-14">
            <stop stop-color="#0B67F9" offset="0%"></stop>
            <stop stop-color="#0B6AF8" offset="42%"></stop>
            <stop stop-color="#0B73F4" offset="74%"></stop>
            <stop stop-color="#0B82EF" offset="100%"></stop>
        </linearGradient>
        <linearGradient x1="65.5000903%" y1="101.215767%" x2="20.9621353%" y2="10.9930893%" id="linearGradient-15">
            <stop stop-color="#0B67F9" offset="0%"></stop>
            <stop stop-color="#0B6BF8" offset="39%"></stop>
            <stop stop-color="#0B77F3" offset="76%"></stop>
            <stop stop-color="#0B82EF" offset="100%"></stop>
        </linearGradient>
    </defs>
    <g id="Page-1" stroke="none" stroke-width="1" fill="none" fill-rule="evenodd">
        <g id="4" transform="translate(-138.000000, -201.000000)">
            <g id="Group-3" transform="translate(141.000000, 203.000000)">
                <g id="Oval">
                    <use fill="black" fill-opacity="1" filter="url(#filter-2)" xlink:href="#path-1"></use>
                    <use fill="#FFFFFF" fill-rule="evenodd" xlink:href="#path-1"></use>
                </g>
                <g id="Untitled-1" transform="translate(14.883721, 23.255814)" fill-rule="nonzero">
                    <polygon id="Path" fill="url(#linearGradient-3)" points="7.11418605 17.554186 2.47395349 33.9090698 0 0.00209302326"></polygon>
                    <polygon id="Path" fill="url(#linearGradient-4)" points="18.9962791 18.1109302 13.7448837 33.9090698 13.7448837 33.9090698 7.11418605 17.554186 12.0955814 0"></polygon>
                    <polygon id="Path" fill="url(#linearGradient-5)" points="31.0353488 18.1109302 25.017907 33.9090698 18.9962791 18.1109302 25.015814 0"></polygon>
                    <polygon id="Path" fill="url(#linearGradient-6)" points="42.9174419 17.554186 36.2888372 33.9090698 36.2867442 33.9090698 31.0353488 18.1109302 37.9381395 0"></polygon>
                    <polygon id="Path" fill="url(#linearGradient-7)" points="50.035814 0.00209302326 48.3551163 22.9897674 47.5576744 33.9090698 42.9195349 17.552093 50.0316279 0"></polygon>
                    <polygon id="Path" fill="url(#linearGradient-8)" points="18.9962791 18.1109302 30.7444186 29.4362791 31.1713953 33.9090698 20.0469767 33.9090698"></polygon>
                    <polygon id="Path" fill="url(#linearGradient-9)" points="31.0353488 18.1109302 42.6369767 29.4362791 43.0639535 33.9090698 31.9395349 33.9090698"></polygon>
                    <polygon id="Path" fill="url(#linearGradient-10)" points="7.11418605 17.554186 18.9962791 29.4362791 19.4253488 33.9090698 8.29883721 33.9090698"></polygon>
                    <polygon id="Path" fill="url(#linearGradient-11)" points="48.3551163 24.0237209 47.5576744 33.9090698 44.104186 33.9090698 42.9195349 17.552093"></polygon>
                    <polygon id="Path" fill="url(#linearGradient-12)" points="13.7448837 33.9090698 13.7448837 33.9090698 2.47395349 33.9090698 2.47395349 33.9090698 7.11418605 17.554186 13.7448837 33.9090698"></polygon>
                    <g id="Group" opacity="0.39" transform="translate(2.302326, 17.372093)" fill="#FFFFFF">
                        <path d="M0.169534884,16.5348837 C0.535813953,15.1827907 0.895813953,13.8265116 1.28093023,12.4786047 L2.41325581,8.43069767 C2.79209302,7.08069767 3.17093023,5.73069767 3.57069767,4.38697674 L4.75534884,0.351627907 L4.8055814,0.18 L4.87255814,0.345348837 L5.08186047,0.872790698 C5.15093023,1.04860465 5.22627907,1.2244186 5.29116279,1.40232558 L5.69302326,2.46767442 L5.69302326,2.46767442 L4.81395349,0.374651163 L4.82860465,0.374651163 L0.177906977,16.5411628 L0.169534884,16.5348837 Z" id="Path"></path>
                    </g>
                    <polygon id="Path" fill="url(#linearGradient-13)" points="25.017907 33.9090698 13.7448837 33.9090698 18.9962791 18.1109302"></polygon>
                    <polygon id="Path" fill="url(#linearGradient-14)" points="36.2867442 33.9090698 25.017907 33.9090698 31.0353488 18.1109302"></polygon>
                    <g id="Group" opacity="0.39" transform="translate(13.604651, 18.000000)" fill="#FFFFFF">
                        <path d="M0.144418605,15.9216279 C0.563023256,14.6113953 0.971162791,13.2990698 1.40023256,11.9951163 L2.69162791,8.07697674 C3.11023256,6.77093023 3.54976744,5.46488372 3.99976744,4.16511628 L5.34348837,0.26372093 L5.39581395,0.108837209 L5.45860465,0.259534884 L5.55906977,0.500232558 C5.59046512,0.581860465 5.62813953,0.659302326 5.65534884,0.740930233 L5.83116279,1.2327907 L5.83116279,1.2327907 L5.41255814,0.284651163 L5.4272093,0.284651163 L0.152790698,15.925814 L0.144418605,15.9216279 Z" id="Path"></path>
                    </g>
                    <g id="Group" opacity="0.39" transform="translate(24.906977, 18.000000)" fill="#FFFFFF">
                        <path d="M0.110930233,15.9969767 C0.594418605,14.6804651 1.06744186,13.3597674 1.57604651,12.0495349 L3.04116279,8.10837209 C3.53511628,6.79604651 4.02906977,5.48162791 4.54395349,4.17767442 L6.07186047,0.25744186 L6.13046512,0.106744186 L6.18697674,0.255348837 L6.23511628,0.383023256 C6.25272181,0.425444858 6.26809173,0.46876009 6.28116279,0.512790698 L6.3544186,0.778604651 L6.3544186,0.778604651 L6.13465116,0.278372093 L6.14930233,0.278372093 L0.110930233,16.0011628 L0.110930233,15.9969767 Z" id="Path"></path>
                    </g>
                    <polygon id="Path" fill="url(#linearGradient-15)" points="47.5597674 33.9090698 36.2888372 33.9090698 42.9174419 17.554186"></polygon>
                    <g id="Group" opacity="0.39" transform="translate(36.209302, 17.372093)" fill="#FFFFFF">
                        <polygon id="Path" points="0.073255814 16.5348837 0.862325581 14.4732558 1.67651163 12.424186 3.30697674 8.32395349 4.99186047 4.24674419 5.83534884 2.20813953 6.70395349 0.18 6.7144186 0.184186047 0.0837209302 16.5390698"></polygon>
                    </g>
                </g>
            </g>
        </g>
    </g>
</svg>