<svg width="28" height="28" viewBox="0 0 28 28" fill="none" xmlns="http://www.w3.org/2000/svg">
<path d="M18.0972 0.666626H9.91584C2.44384 0.666626 0.666504 2.44396 0.666504 9.90263V18.084C0.666504 25.5546 2.4305 27.3333 9.9025 27.3333H18.0838C25.5545 27.3333 27.3332 25.5693 27.3332 18.0973V9.91596C27.3332 2.44396 25.5692 0.666626 18.0972 0.666626ZM22.1945 19.6933H20.2492C19.5132 19.6933 19.2918 19.0973 17.9718 17.7773C16.8198 16.6666 16.3332 16.528 16.0412 16.528C15.6385 16.528 15.5278 16.6386 15.5278 17.1946V18.944C15.5278 19.4173 15.3745 19.6946 14.1385 19.6946C12.939 19.614 11.7757 19.2496 10.7446 18.6313C9.71353 18.0131 8.84406 17.1587 8.20784 16.1386C6.6974 14.2586 5.64643 12.0521 5.1385 9.69463C5.1385 9.40263 5.24917 9.13863 5.80517 9.13863H7.74917C8.24917 9.13863 8.42917 9.36129 8.62517 9.87463C9.56917 12.6533 11.1798 15.0693 11.8332 15.0693C12.0838 15.0693 12.1932 14.9586 12.1932 14.3333V11.472C12.1105 10.1666 11.4172 10.056 11.4172 9.58396C11.4261 9.45946 11.4831 9.34334 11.5762 9.2602C11.6693 9.17706 11.7911 9.13345 11.9158 9.13863H14.9718C15.3892 9.13863 15.5278 9.34663 15.5278 9.84663V13.708C15.5278 14.1253 15.7078 14.264 15.8332 14.264C16.0838 14.264 16.2772 14.1253 16.7358 13.6666C17.721 12.4652 18.5259 11.1267 19.1252 9.69329C19.1864 9.52111 19.3023 9.3737 19.4552 9.27355C19.6081 9.1734 19.7895 9.12602 19.9718 9.13863H21.9172C22.4998 9.13863 22.6238 9.43063 22.4998 9.84663C21.7925 11.4312 20.9173 12.9354 19.8892 14.3333C19.6798 14.6533 19.5958 14.82 19.8892 15.1946C20.0825 15.4866 20.7638 16.056 21.2225 16.5973C21.889 17.2621 22.4425 18.0314 22.8612 18.8746C23.0278 19.416 22.7492 19.6946 22.1945 19.6946V19.6933Z" fill="#FA835F"/>
</svg>
