<?xml version="1.0" encoding="utf-8"?>
<!-- Generator: Adobe Illustrator 21.1.0, SVG Export Plug-In . SVG Version: 6.00 Build 0)  -->
<svg version="1.1" id="Слой_1" xmlns="http://www.w3.org/2000/svg" xmlns:xlink="http://www.w3.org/1999/xlink" x="0px" y="0px"
	 viewBox="0 0 36 36" style="enable-background:new 0 0 36 36;" xml:space="preserve">
<path d="M22.3,19.7L22.3,19.7c-2.3,0-4.3,1.9-4.3,4.2v0c0,2.3,1.9,4.2,4.2,4.2h0c2.3,0,4.2-1.9,4.2-4.2v0
	C26.6,21.6,24.7,19.7,22.3,19.7z M24.9,2.7v1.7H11.3V2.7c0-0.9-0.8-1.7-1.7-1.7h0C8.6,1,7.9,1.8,7.9,2.7v1.7H6.2
	c-1.9,0-3.4,1.5-3.4,3.4l0,23.8c0,1.9,1.5,3.4,3.4,3.4H30c1.9,0,3.4-1.5,3.4-3.4V7.8c0-1.9-1.5-3.4-3.4-3.4h-1.7V2.7
	c0-0.9-0.8-1.7-1.7-1.7h0C25.6,1,24.9,1.8,24.9,2.7z M28.3,31.6H7.9c-0.9,0-1.7-0.8-1.7-1.7v-17c0-0.9,0.8-1.7,1.7-1.7h20.4
	c0.9,0,1.7,0.8,1.7,1.7v17C30,30.8,29.2,31.6,28.3,31.6z"/>
</svg>
