<?xml version="1.0" encoding="utf-8"?>
<!-- Generator: Adobe Illustrator 21.1.0, SVG Export Plug-In . SVG Version: 6.00 Build 0)  -->
<svg version="1.1" id="Слой_1" xmlns="http://www.w3.org/2000/svg" xmlns:xlink="http://www.w3.org/1999/xlink" x="0px" y="0px"
	 viewBox="0 0 36 36" style="enable-background:new 0 0 36 36;" xml:space="preserve">
<style type="text/css">
	.st0{fill:none;}
</style>
<path class="st0" d="M10.2,10.1h16.1v16.1H10.2V10.1z"/>
<g>
	<path d="M17.7,11.1c3.2,0.3,5.9-2.3,5.6-5.6C23,3.2,21.1,1.3,18.8,1c-3.2-0.3-5.9,2.3-5.6,5.6C13.5,8.9,15.4,10.8,17.7,11.1z"/>
	<path d="M18.2,17.1c-3.6-3.4-8.4-5.6-13.7-5.9c-0.8,0-1.4,0.6-1.4,1.3V29c0,0.4,0.3,0.7,0.7,0.7c5.6,0.2,10.7,2.4,14.5,6
		c3.8-3.5,8.9-5.8,14.5-6c0.4,0,0.7-0.3,0.7-0.7V12.5c0-0.8-0.7-1.4-1.4-1.3C26.7,11.5,21.9,13.7,18.2,17.1z M30,28.4
		c-4.5,0.2-8.6,2-11.7,4.9c-3.1-2.9-7.2-4.7-11.7-4.9c-0.4,0-0.7-0.3-0.7-0.7l0-13.8c0-0.4,0.3-0.7,0.7-0.7
		c4.5,0.3,8.6,3.8,11.6,6.7c3.1-2.9,7.1-6.3,11.6-6.7c0.4,0,0.7,0.3,0.7,0.7v13.8C30.6,28.1,30.3,28.4,30,28.4z"/>
</g>
<path d="M18.3,30.6L18.3,30.6c-0.3,0-0.5-0.2-0.5-0.5v-7.9c0-0.3,0.2-0.5,0.5-0.5h0c0.3,0,0.5,0.2,0.5,0.5v7.9
	C18.8,30.3,18.6,30.6,18.3,30.6z"/>
<path d="M21.3,23.3L21.3,23.3c-0.2-0.3-0.1-0.6,0.2-0.7l6.8-3.9c0.2-0.1,0.6-0.1,0.7,0.2l0,0c0.1,0.2,0.1,0.6-0.2,0.7L22,23.5
	C21.7,23.7,21.4,23.6,21.3,23.3z"/>
<path d="M21.6,27.1L21.6,27.1c-0.2-0.3-0.1-0.6,0.2-0.7l6.8-3.9c0.2-0.1,0.6-0.1,0.7,0.2l0,0c0.1,0.2,0.1,0.6-0.2,0.7l-6.8,3.9
	C22.1,27.4,21.8,27.3,21.6,27.1z"/>
</svg>
