<?xml version="1.0" encoding="utf-8"?>
<!-- Generator: Adobe Illustrator 21.1.0, SVG Export Plug-In . SVG Version: 6.00 Build 0)  -->
<svg version="1.1" id="Слой_1" xmlns="http://www.w3.org/2000/svg" xmlns:xlink="http://www.w3.org/1999/xlink" x="0px" y="0px"
	 viewBox="0 0 36 36" style="enable-background:new 0 0 36 36;" xml:space="preserve">
<style type="text/css">
	.st0{stroke:#000000;stroke-miterlimit:10;}
</style>
<g>
	<g>
		<path class="st0" d="M13.4,30.6h1.1c0,1.8,1.5,3.3,3.3,3.3s3.3-1.5,3.3-3.3h1.1c0,2.4-2,4.4-4.4,4.4S13.4,33,13.4,30.6z M20.7,4.2
			h-0.7C19.9,3,19,2,17.8,2s-2.2,1-2.2,2.2h-0.7c0-1.6,1.3-2.9,2.9-2.9S20.7,2.6,20.7,4.2z M31.5,26.7v0.6c0,0.9-0.7,1.7-1.7,1.7
			H5.7c-0.9,0-1.7-0.7-1.7-1.7v-0.6c0-1.8,1.5-3.3,3.3-3.3v-7.2c0-5.8,4.7-10.5,10.5-10.5c5.8,0,10.5,4.7,10.5,10.5v7.2
			C30.1,23.4,31.5,24.9,31.5,26.7z"/>
	</g>
</g>
</svg>
