<?xml version="1.0" encoding="utf-8"?>
<!-- Generator: Adobe Illustrator 21.1.0, SVG Export Plug-In . SVG Version: 6.00 Build 0)  -->
<svg version="1.1" id="Слой_1" xmlns="http://www.w3.org/2000/svg" xmlns:xlink="http://www.w3.org/1999/xlink" x="0px" y="0px"
	 viewBox="0 0 36 36" style="enable-background:new 0 0 36 36;" xml:space="preserve">
<style type="text/css">
	.st0{fill:none;}
</style>
<g>
	<path class="st0" d="M10.2,10.1h16.1v16.1H10.2V10.1z"/>
	<g>
		<path d="M6.7,13.1c3.2,0.3,5.9-2.3,5.6-5.6C12,5.2,10.1,3.3,7.8,3C4.6,2.7,1.9,5.4,2.2,8.6C2.5,10.9,4.4,12.8,6.7,13.1z"/>
	</g>
	<path d="M30.5,21h-26C3.1,21,2,19.9,2,18.5v0C2,17.1,3.1,16,4.5,16h26c1.4,0,2.5,1.1,2.5,2.5v0C33,19.9,31.9,21,30.5,21z"/>
	<path d="M30.5,29h-26C3.1,29,2,27.9,2,26.5v0C2,25.1,3.1,24,4.5,24h26c1.4,0,2.5,1.1,2.5,2.5v0C33,27.9,31.9,29,30.5,29z"/>
</g>
</svg>
