<svg width="24" height="24" viewBox="0 0 24 24" fill="none" xmlns="http://www.w3.org/2000/svg">
<path d="M21.7224 20.3139L18.014 16.6333C19.4535 14.8374 20.1506 12.5579 19.962 10.2636C19.7734 7.96919 18.7134 5.83432 17 4.29792C15.2866 2.76153 13.05 1.9404 10.7501 2.00337C8.45017 2.06634 6.26179 3.00863 4.63491 4.63648C3.00803 6.26433 2.0663 8.454 2.00337 10.7553C1.94044 13.0565 2.76108 15.2945 4.29656 17.0089C5.83204 18.7233 7.96564 19.784 10.2587 19.9727C12.5517 20.1614 14.8298 19.4639 16.6246 18.0235L20.303 21.7042C20.396 21.7979 20.5065 21.8723 20.6283 21.9231C20.7501 21.9739 20.8808 22 21.0127 22C21.1447 22 21.2753 21.9739 21.3971 21.9231C21.519 21.8723 21.6295 21.7979 21.7224 21.7042C21.9026 21.5177 22.0033 21.2684 22.0033 21.009C22.0033 20.7497 21.9026 20.5004 21.7224 20.3139ZM11.017 18.0235C9.63315 18.0235 8.28036 17.6129 7.12971 16.8436C5.97906 16.0743 5.08223 14.9809 4.55265 13.7016C4.02306 12.4223 3.8845 11.0146 4.15448 9.65653C4.42446 8.29844 5.09086 7.05095 6.06941 6.07183C7.04795 5.0927 8.2947 4.4259 9.65198 4.15576C11.0093 3.88562 12.4161 4.02426 13.6947 4.55417C14.9732 5.08407 16.066 5.98142 16.8348 7.13276C17.6037 8.28409 18.014 9.63769 18.014 11.0224C18.014 12.8792 17.2768 14.66 15.9647 15.973C14.6525 17.2859 12.8727 18.0235 11.017 18.0235Z" fill="#FA835F"/>
</svg>
