<svg width="80" height="80" viewBox="0 0 80 80" fill="white" xmlns="http://www.w3.org/2000/svg">
<path d="M73.3929 45.7411C69.3459 42.0799 64.0094 36.687 62.1929 34.1082C61.8918 33.6847 61.4871 33.3364 61.0165 33.1105C59.5576 32.4141 57.8071 32.9882 57.0447 34.4094C56.5835 35.2658 54.5412 38.2494 53.0541 40.4235C52.3765 41.4117 51.8306 42.2023 51.6518 42.4847C51.1812 43.247 50.6541 44 50.08 44.6964C49.1576 45.7694 47.6706 46.9741 45.647 48.2917C44.0094 49.3647 42.1741 50.4188 40.3953 51.4352C39.3129 52.0564 38.0894 52.7623 36.9694 53.4399C35.3882 54.4094 34.3059 55.1529 33.4682 55.8682C32.4988 56.7058 31.7929 57.487 31.5106 58.5129C31.2753 59.4541 31.1059 60.3011 30.9553 61.0635C30.7953 61.8729 30.6635 62.5317 30.4941 63.087C30.3718 63.567 30.1647 64.0376 29.8918 64.4611C29.6188 64.8658 29.2612 65.1952 28.847 65.4305C28.4612 65.6282 28.0376 65.7411 27.6141 65.76C26.3718 65.8541 24.8565 65.4776 24.2635 65.3176C22.6541 64.8752 20.9412 64.8564 19.3129 65.2517C19.247 65.2705 19.1718 65.2988 19.1059 65.327C16.4423 66.6917 13.28 66.9176 10.4376 65.9388L8.87528 65.4117C8.6494 65.3364 7.48234 64.8941 7.14352 64C6.98352 63.5764 7.03058 63.1341 7.27528 62.6823C7.31293 62.607 7.38822 62.5599 7.46352 62.5411L14.56 60.9976C14.6259 60.9788 14.6918 60.96 14.767 60.9223C15.1529 60.7341 17.2423 59.7176 19.6235 58.4188C21.12 57.5999 22.4376 56.8376 23.5388 56.1411C24.9882 55.2188 25.9294 54.5129 26.5976 53.8541C26.9929 53.4588 28.32 52.047 29.9388 50.2964C30.0047 50.4376 30.0988 50.56 30.24 50.6447L33.2235 52.4423C33.3553 52.5176 33.4965 52.5552 33.6376 52.5552C33.8259 52.5552 34.0047 52.4894 34.1553 52.367L51.5012 37.9482C51.6988 37.7788 51.8118 37.5247 51.7929 37.2705C51.7741 37.007 51.6329 36.7717 51.4071 36.64L45.6 33.0352C48.2729 30.0047 50.6071 27.3317 52.3765 25.2988C53.2706 24.2635 54.8329 23.5294 57.1671 23.0494C60.0847 22.447 62.4471 23.4258 64.3765 24.4705C64.4518 24.5176 64.4988 24.5458 64.5459 24.5647L72.16 28.7905C72.3765 28.9035 72.6306 28.9317 72.8565 28.8658C73.0918 28.8 73.28 28.64 73.4023 28.4235C73.5153 28.207 73.5435 27.9623 73.4776 27.727C73.4118 27.4917 73.2518 27.3035 73.0353 27.1811L65.6753 23.0964C65.6188 23.0682 65.5812 23.0211 65.5529 22.9647L63.7365 19.5952C63.5106 19.1435 62.9647 18.9552 62.5129 19.1717C62.0612 19.3882 61.8729 19.9435 62.0894 20.3952C62.4659 21.0541 62.72 21.4682 62.8988 21.7317C62.8988 21.7317 62.8988 21.7317 62.8988 21.7411C62.8047 21.7976 62.6918 21.7976 62.5976 21.7505C62.2965 21.5811 60.7718 21.1482 60.4235 21.0729C57.9012 20.5176 54.7012 21.2988 52.4612 22.8517L52.2353 19.7364C51.8965 15.1058 54.7294 12.0094 59.6141 11.6517C61.9106 11.4823 64.1882 12.4235 65.7035 14.1647L72.3576 22.6917C72.4988 22.8517 72.7247 22.9647 72.9694 22.9835C73.2141 23.0023 73.4494 22.9176 73.6282 22.7576C74.0047 22.4282 74.0518 21.8447 73.7129 21.4682L67.0588 12.9411C65.1859 10.7952 62.3435 9.61878 59.4729 9.83525C53.6376 10.2588 49.9953 14.2964 50.4 19.8776L50.7294 24.3388C50.7294 24.367 50.7482 24.3858 50.7482 24.4047C47.5576 28.0752 42.7106 33.6094 37.2235 39.727C36.64 40.3576 35.5012 41.5905 34.1459 43.0588C30.7576 46.7294 26.127 51.7552 25.2988 52.5741C24.7812 53.0917 23.7835 53.8352 22.5506 54.607C20.6965 55.7835 18.4659 56.9882 16.9129 57.7976C16.0188 58.2682 15.2659 58.6447 14.7953 58.88L14.0894 59.2282L5.83528 61.0352C5.53411 61.1011 5.15764 62.5035 5.2047 63.1623C5.35528 65.2705 6.27764 66.4658 8.27293 67.1529L9.83528 67.6894C13.0918 68.8094 16.7247 68.5741 19.8023 67.04C20.2259 66.9364 20.6588 66.8799 21.0823 66.8423C21.9953 66.7764 22.9082 66.8611 23.7741 67.0964C24.7623 67.36 26.2494 67.6988 27.727 67.5952C28.4423 67.5576 29.1576 67.36 29.7788 67.0023C30.4094 66.6352 30.9741 66.1176 31.3882 65.5058C32.0188 64.5741 32.2918 63.5011 32.4988 62.5694C32.5835 62.1835 32.6588 61.7788 32.7435 61.3647C32.8941 60.5835 33.0541 59.8117 33.2612 58.9741C33.3176 58.7105 33.5718 58.3247 33.92 57.9388C34.5412 57.2611 35.6988 56.3858 37.2612 55.407C38.4659 54.6447 39.8118 53.8729 41.2423 53.0541C42.4376 52.367 43.6329 51.68 44.8 50.9741C47.1341 49.5529 49.7506 47.84 51.4259 45.9105C52.0471 45.1482 52.6306 44.3294 53.1482 43.4917C53.6 42.7764 54.0894 42.0611 54.5882 41.3552L55.1059 51.9811C55.1059 52.0188 55.1059 52.047 55.0965 52.0847L52.3576 61.5529C52.3482 61.5905 52.3294 61.6282 52.3012 61.6658L49.1294 65.3364C48.8 65.7223 48.8376 66.2964 49.2235 66.6258C49.28 66.6729 49.3459 66.7199 49.4118 66.7482C50.9647 67.5294 52.6588 67.8964 54.2023 67.7835C54.2212 67.7835 54.2306 67.7835 54.2494 67.7835C56.0659 67.6517 57.7694 66.7764 58.9365 65.3835C59.8871 64.2823 60.6871 62.8611 61.4588 61.4776C62.1647 60.2164 62.8329 59.0211 63.5482 58.2023C64.1318 57.5341 64.8 56.9317 65.5247 56.4235C66.3529 55.84 67.1059 55.1529 67.7741 54.3905C68.3576 53.7223 68.6494 52.8376 68.5741 51.9435C68.3859 49.4682 65.7788 46.9458 63.8306 45.2705C63.7741 45.2235 63.7365 45.1482 63.7271 45.0729L63.5671 38.3247C65.8353 40.8282 68.4141 43.6988 72.1694 47.0964C72.5459 47.4447 73.12 47.4258 73.4682 47.0588C73.8165 46.6917 73.7882 46.1082 73.4212 45.7694C73.4023 45.7505 73.4023 45.7411 73.3929 45.7411ZM35.6235 44.1505L37.647 41.9482C37.6659 41.9294 37.7223 41.8823 37.7412 41.8729L38.5223 40.9976C38.5694 40.9505 38.607 40.9035 38.6353 40.8658C40.7059 38.5599 42.6729 36.3388 44.5082 34.2682L49.6 37.4305L33.5718 50.7576L31.0776 49.2517C31.04 49.2235 30.9929 49.2235 30.9459 49.2047C32.5082 47.5294 34.2212 45.6752 35.6235 44.1505ZM66.7388 52.0752C66.7859 52.48 66.6541 52.8847 66.3717 53.1952C65.7882 53.8635 65.1294 54.4564 64.3953 54.9647C63.5671 55.5482 62.8141 56.2352 62.1459 56.9976C61.3176 57.9576 60.6023 59.2282 59.8494 60.5741C59.1153 61.8917 58.3623 63.2188 57.5435 64.1788C55.7459 66.2682 53.4118 66.1647 51.7741 65.7035C51.68 65.6752 51.6047 65.5999 51.5765 65.5058C51.5482 65.4117 51.5671 65.3082 51.6329 65.2329L53.8635 62.6541C53.9482 62.56 54.0141 62.4376 54.0518 62.3152L56.9506 52.367C56.9788 52.2635 56.9882 52.1505 56.9882 52.047L56.3576 39.1435C56.3482 39.0776 56.32 39.0117 56.3012 38.9458C57.2329 37.6094 58.0894 36.3482 58.6635 35.2752C58.8141 34.9929 59.0682 34.7858 59.3788 34.6917C59.6894 34.5976 60.0094 34.6352 60.2918 34.7858C60.3576 34.8235 60.3859 34.8423 61.8823 36.4611C61.7694 36.6305 61.6941 36.8282 61.7129 37.0447L61.9482 45.6941C61.9671 45.9388 62.08 46.1647 62.2588 46.3152L62.4471 46.4752C65.2235 48.8752 66.6353 50.7011 66.7388 52.0752Z" />
</svg>
