<svg width="77" height="55" viewBox="0 0 77 55" stroke="white"  fill="white" xmlns="http://www.w3.org/2000/svg">
<g clip-path="url(#clip0)">
<path d="M1.03564 20.9948L5.02186 24.4233C5.02186 24.4233 31.6424 6.11519 40.9436 6.13804C50.2448 6.1609 62.8907 10.7094 62.8907 10.7094C62.8907 10.7094 50.1531 1.45244 40.9436 1.56672C31.7341 1.68101 1.03564 20.9948 1.03564 20.9948Z"  stroke-width="2" stroke-miterlimit="10" stroke-linecap="round" stroke-linejoin="round"/>
<path d="M54.002 33.0403C54.6892 34.4345 56.7282 37.7716 60.5998 38.1373"  stroke-width="2" stroke-miterlimit="10" stroke-linecap="round" stroke-linejoin="round"/>
<path d="M50.3823 34.9146C50.8634 36.2631 52.994 41.5887 58.3089 42.6172"  stroke-width="2" stroke-miterlimit="10" stroke-linecap="round" stroke-linejoin="round"/>
<path d="M45.8921 37.4517C46.671 39.3259 50.0158 46.5029 56.018 47.28"  stroke-width="2" stroke-miterlimit="10" stroke-linecap="round" stroke-linejoin="round"/>
<path d="M38.1255 41.3601C39.1335 43.4401 41.9972 48.3999 46.8539 49.5656"  stroke-width="2" stroke-miterlimit="10" stroke-linecap="round" stroke-linejoin="round"/>
<path d="M35.3997 49.5656C31.5968 48.6971 30.9095 44.6972 30.8179 42.6858"  stroke-width="2" stroke-miterlimit="10" stroke-linecap="round" stroke-linejoin="round"/>
<path d="M17.0723 24.4233C17.0723 24.4233 26.0756 17.3149 35.3997 17.5663C44.7238 17.8178 51.4362 22.1377 51.4362 22.1377"  stroke-width="2" stroke-miterlimit="10" stroke-linecap="round" stroke-linejoin="round"/>
<path d="M60.5994 31.2803H59.4539C51.4586 32.3317 40.8974 42.6629 31.9628 42.7086C23.0282 42.7543 8.54953 36.9944 8.54953 36.9944L4.47168 38.8915"  stroke-width="2" stroke-miterlimit="10" stroke-linecap="round" stroke-linejoin="round"/>
<path d="M87.8917 36.4L70.8538 19.88L57 14L62.9772 27.832L87.8917 51.8"  stroke-width="2" stroke-miterlimit="10" stroke-linecap="round" stroke-linejoin="round"/>
<path d="M62.9775 27.8319L70.8541 19.8799"  stroke-width="2" stroke-miterlimit="10" stroke-linecap="round" stroke-linejoin="round"/>
</g>
<defs>
<clipPath id="clip0">
<rect width="77" height="55" />
</clipPath>
</defs>
</svg>
