<svg width="20" height="20" viewBox="0 0 20 20" fill="none" xmlns="http://www.w3.org/2000/svg">
<path d="M14.8056 6.77778H14.1111V6.08333C14.1111 5.5308 13.8916 5.0009 13.5009 4.61019C13.1102 4.21949 12.5803 4 12.0278 4H5.08333C4.5308 4 4.0009 4.21949 3.61019 4.61019C3.21949 5.0009 3 5.5308 3 6.08333V14.4167C3 14.9692 3.21949 15.4991 3.61019 15.8898C4.0009 16.2805 4.5308 16.5 5.08333 16.5H14.8056C15.3581 16.5 15.888 16.2805 16.2787 15.8898C16.6694 15.4991 16.8889 14.9692 16.8889 14.4167V8.86111C16.8889 8.30858 16.6694 7.77867 16.2787 7.38797C15.888 6.99727 15.3581 6.77778 14.8056 6.77778ZM5.08333 5.38889H12.0278C12.212 5.38889 12.3886 5.46205 12.5188 5.59229C12.6491 5.72252 12.7222 5.89916 12.7222 6.08333V6.77778H5.08333C4.89916 6.77778 4.72252 6.70461 4.59229 6.57438C4.46205 6.44415 4.38889 6.26751 4.38889 6.08333C4.38889 5.89916 4.46205 5.72252 4.59229 5.59229C4.72252 5.46205 4.89916 5.38889 5.08333 5.38889ZM15.5 12.3333H14.8056C14.6214 12.3333 14.4447 12.2602 14.3145 12.1299C14.1843 11.9997 14.1111 11.8231 14.1111 11.6389C14.1111 11.4547 14.1843 11.2781 14.3145 11.1478C14.4447 11.0176 14.6214 10.9444 14.8056 10.9444H15.5V12.3333ZM15.5 9.55556H14.8056C14.253 9.55556 13.7231 9.77505 13.3324 10.1657C12.9417 10.5564 12.7222 11.0864 12.7222 11.6389C12.7222 12.1914 12.9417 12.7213 13.3324 13.112C13.7231 13.5027 14.253 13.7222 14.8056 13.7222H15.5V14.4167C15.5 14.6008 15.4268 14.7775 15.2966 14.9077C15.1664 15.0379 14.9897 15.1111 14.8056 15.1111H5.08333C4.89916 15.1111 4.72252 15.0379 4.59229 14.9077C4.46205 14.7775 4.38889 14.6008 4.38889 14.4167V8.04861C4.61199 8.12709 4.84683 8.16702 5.08333 8.16667H14.8056C14.9897 8.16667 15.1664 8.23983 15.2966 8.37006C15.4268 8.5003 15.5 8.67693 15.5 8.86111V9.55556Z" fill="#767676"/>
</svg>
