<svg width="24" height="24" viewBox="0 0 24 24" fill="black" xmlns="http://www.w3.org/2000/svg">
<path d="M9.06469 10.8001C9.64969 10.4251 10.3847 10.5001 10.9247 10.9851C10.9697 11.0251 11.0247 11.0451 11.0797 11.0451C11.1447 11.0451 11.2097 11.0201 11.2547 10.9651C11.3397 10.8701 11.3347 10.7201 11.2347 10.6351C10.5297 10.0051 9.57969 9.91511 8.81469 10.4051C8.70469 10.4751 8.67469 10.6201 8.74469 10.7251C8.80969 10.8401 8.95469 10.8701 9.06469 10.8001Z" />
<path d="M15.1098 10.41C14.3398 9.91999 13.3898 10.01 12.6898 10.64C12.5948 10.725 12.5848 10.875 12.6698 10.97C12.7148 11.02 12.7798 11.05 12.8448 11.05C12.8998 11.05 12.9548 11.03 12.9998 10.99C13.5448 10.505 14.2748 10.435 14.8598 10.805C14.9698 10.875 15.1148 10.84 15.1798 10.735C15.2498 10.62 15.2198 10.475 15.1098 10.41Z" />
<path d="M11.1397 12.25C11.1147 12.125 10.9897 12.04 10.8647 12.07C10.2597 12.195 10.0997 12.22 9.69974 12.225C9.49974 12.225 9.28474 12.15 9.24474 12.07C9.18974 11.955 9.04974 11.905 8.93474 11.965C8.81974 12.02 8.76974 12.16 8.82974 12.275C8.97974 12.585 9.39474 12.69 9.70474 12.69H9.70974C10.1497 12.69 10.3347 12.655 10.9647 12.53C11.0847 12.5 11.1647 12.375 11.1397 12.25Z" />
<path d="M14.9103 11.955C14.7953 11.9 14.6553 11.945 14.6003 12.06C14.5603 12.145 14.3453 12.215 14.1453 12.215C13.7453 12.215 13.5903 12.185 12.9803 12.06C12.8553 12.035 12.7303 12.115 12.7053 12.24C12.6803 12.365 12.7603 12.49 12.8853 12.515C13.5153 12.64 13.7003 12.675 14.1403 12.675H14.1453C14.4553 12.675 14.8703 12.565 15.0203 12.26C15.0753 12.155 15.0253 12.015 14.9103 11.955Z" />
<path d="M12.325 14.9551C11.98 14.9601 11.92 15.1451 11.91 15.2301C11.905 15.1451 11.865 14.9451 11.52 14.9451C11.345 14.9451 11.105 15.1151 10.925 15.2701C10.775 15.4001 10.765 15.6301 10.91 15.7651C11.12 15.9551 11.465 16.1851 11.91 16.1901C12.365 16.1901 12.755 15.9001 12.97 15.7001C13.075 15.6001 13.07 15.4401 12.965 15.3401C12.785 15.1751 12.505 14.9551 12.325 14.9551ZM11.91 15.7151C11.695 15.7151 11.365 15.5601 11.365 15.5601H12.53C12.53 15.5551 12.125 15.7151 11.91 15.7151Z" />
<path d="M15.6048 15.13C15.6548 15.02 15.7048 14.9 15.7548 14.785C15.8148 14.78 15.8698 14.765 15.9248 14.73C16.7198 14.225 17.2948 13.41 17.5098 12.495C17.5948 12.13 17.5498 11.83 17.3898 11.625C17.9598 9.42999 17.5748 7.08499 16.4298 5.78499C15.5798 4.81999 14.8198 4.22999 14.1148 3.96999C14.1298 3.69499 14.1148 3.39499 14.0048 3.10999C13.8398 2.67999 13.4648 2.32499 12.9798 2.13499C12.5798 1.97499 12.1198 1.92999 11.6098 1.99499C11.2548 2.03999 10.9648 2.12999 10.7148 2.26499C10.0848 2.59999 9.72483 3.30999 9.79983 3.99999C9.11983 4.24499 8.47483 4.62499 7.92483 5.15999C6.24983 6.79499 5.69483 9.44499 6.54483 11.66C6.40483 11.865 6.37483 12.15 6.45483 12.495C6.66983 13.41 7.24483 14.225 8.03983 14.73C8.09983 14.77 8.16483 14.785 8.22483 14.79C8.73483 15.925 9.42983 16.895 10.1398 17.345C10.4798 17.56 11.2148 17.875 12.0548 17.875C12.7348 17.875 13.4848 17.67 14.1448 17.035C14.6248 16.575 15.2248 15.94 15.6048 15.13ZM16.9898 12.37C16.8448 12.985 16.5098 13.54 16.0448 13.96C16.2198 13.4 16.3548 12.81 16.4448 12.2C16.4548 12.19 16.4698 12.18 16.4798 12.165C16.5698 12.04 16.6548 11.96 16.7398 11.92C16.8148 11.885 16.9048 11.885 16.9498 11.92C17.0248 11.985 17.0398 12.155 16.9898 12.37ZM10.9698 2.72499C11.1598 2.61999 11.3898 2.55499 11.6748 2.51499C12.0898 2.46499 12.4748 2.49999 12.7848 2.62499C13.1248 2.75999 13.3998 3.00999 13.5098 3.29999C13.5698 3.45999 13.5898 3.63499 13.5848 3.81499C12.6098 3.57499 11.4398 3.54999 10.3198 3.84499C10.3148 3.39499 10.5648 2.94499 10.9698 2.72499ZM6.96983 12.37C6.91983 12.15 6.93483 11.98 7.00983 11.925C7.05483 11.89 7.14483 11.89 7.21983 11.925C7.30483 11.965 7.38983 12.045 7.47983 12.165C7.54983 12.75 7.68983 13.355 7.89483 13.94C7.43483 13.525 7.10983 12.975 6.96983 12.37ZM13.7748 16.65C12.3248 18.04 10.4398 16.905 10.4248 16.895C9.29483 16.175 8.15483 13.85 7.98483 11.915C7.97483 11.795 7.95983 11.67 7.94483 11.545C7.86983 10.94 7.79483 10.37 8.22983 10.03C8.57983 9.75499 9.04983 9.68499 9.57983 9.62999C10.1748 9.56499 11.4748 9.32999 12.1548 8.91999C13.1248 8.32499 13.3548 7.98999 13.9298 7.00999C14.0048 6.88499 13.9598 6.71999 13.8348 6.64499C13.7098 6.56999 13.5448 6.61499 13.4698 6.73999C12.9198 7.66999 12.7398 7.93499 11.8748 8.46499C11.3848 8.76499 10.2948 9.01499 9.51983 9.09999C9.04483 9.14999 8.39983 9.22499 7.89983 9.60999C7.28483 10.085 7.31483 10.805 7.38983 11.43C7.26483 11.38 7.12983 11.365 7.00483 11.385C6.27983 9.37999 6.78983 7.00999 8.29483 5.54499C9.85483 4.01999 12.2848 3.90999 13.8848 4.45499C14.5098 4.66499 15.2298 5.23499 16.0298 6.13999C17.0298 7.27499 17.3798 9.40999 16.8998 11.38C16.7798 11.37 16.6548 11.395 16.5348 11.445C16.5548 11.23 16.5698 11.015 16.5748 10.8C16.5998 10.02 16.1698 9.03999 15.3998 8.74499C15.2648 8.69499 15.1098 8.75999 15.0548 8.89999C15.0048 9.03499 15.0698 9.18999 15.2098 9.24499C15.7298 9.44499 16.0598 10.2 16.0398 10.785C15.9898 12.255 15.6548 13.765 15.1148 14.92C14.8548 15.475 14.4398 16.01 13.7748 16.65Z" />
<path d="M18.8501 13.615C18.7601 13.57 18.6501 13.58 18.5701 13.645L18.4701 13.72C17.8901 14.155 17.5451 14.845 17.5451 15.565V16.785C17.5451 16.86 17.5051 16.925 17.4401 16.955L16.9801 17.185C17.2401 16.81 17.3251 16.335 17.2151 15.885L17.1501 15.625C17.1251 15.53 17.0551 15.46 16.9651 15.43C16.8751 15.405 16.7751 15.43 16.7051 15.5L14.5001 17.705C14.0901 18.115 13.9451 18.715 14.1301 19.27L14.8001 21.285C14.8451 21.425 14.9951 21.5 15.1351 21.455C15.2751 21.41 15.3501 21.26 15.3051 21.12L14.6351 19.1C14.5151 18.74 14.6051 18.35 14.8751 18.08L16.7301 16.225C16.7401 16.49 16.6551 16.75 16.4851 16.96L15.7751 17.815C15.6951 17.91 15.6951 18.05 15.7701 18.15C15.8501 18.25 15.9851 18.28 16.1001 18.225L17.6801 17.435C17.9251 17.32 18.0851 17.065 18.0851 16.785V15.565C18.0851 15.165 18.2251 14.775 18.4701 14.465V17.33C18.4701 17.665 18.3151 17.985 18.0501 18.2L16.2701 19.625C16.1851 19.695 16.1501 19.81 16.1851 19.915L16.6451 21.295C16.6801 21.405 16.7851 21.475 16.8951 21.475C16.9251 21.475 16.9501 21.47 16.9801 21.46C17.1201 21.415 17.1951 21.265 17.1501 21.125L16.7501 19.92L18.3851 18.61C18.7801 18.295 19.0051 17.825 19.0051 17.325V13.85C19.0001 13.75 18.9451 13.66 18.8501 13.615Z" />
<path d="M7.29 15.505C7.22 15.435 7.125 15.41 7.03 15.435C6.935 15.46 6.865 15.535 6.845 15.63L6.78 15.89C6.67 16.335 6.76 16.81 7.015 17.19L6.55 16.955C6.49 16.925 6.45 16.86 6.45 16.785V15.565C6.45 14.845 6.105 14.155 5.53 13.725L5.43 13.645C5.35 13.585 5.24 13.57 5.15 13.615C5.06 13.66 5 13.75 5 13.855V17.33C5 17.83 5.225 18.295 5.62 18.615L7.255 19.925L6.855 21.13C6.81 21.27 6.885 21.42 7.025 21.465C7.055 21.475 7.08 21.48 7.11 21.48C7.22 21.48 7.325 21.41 7.36 21.3L7.82 19.92C7.855 19.815 7.82 19.7 7.735 19.63L5.955 18.205C5.69 17.99 5.535 17.675 5.535 17.335V14.47C5.78 14.78 5.92 15.17 5.92 15.575V16.795C5.92 17.075 6.08 17.33 6.32 17.44L7.905 18.235C8.015 18.29 8.155 18.26 8.235 18.16C8.315 18.06 8.31 17.92 8.23 17.825L7.52 16.97C7.35 16.765 7.26 16.5 7.275 16.235L9.13 18.09C9.4 18.36 9.49 18.75 9.37 19.11L8.7 21.125C8.655 21.265 8.73 21.415 8.87 21.46C9.01 21.505 9.16 21.43 9.205 21.29L9.875 19.275C10.06 18.725 9.92 18.125 9.51 17.71L7.29 15.505Z" />
</svg>
