<svg width="13" height="13" viewBox="0 0 13 13" fill="none" xmlns="http://www.w3.org/2000/svg">
<path d="M11.9674 0.541154C11.7286 0.29783 11.4258 0.127043 11.094 0.0485398C10.7622 -0.029963 10.415 -0.0129745 10.0924 0.0975409L1.24866 3.05288C0.891979 3.1696 0.580338 3.39412 0.356753 3.69546C0.133169 3.99679 0.00866748 4.36008 0.000436187 4.73518C-0.0077951 5.11027 0.100649 5.47867 0.3108 5.78952C0.52095 6.10037 0.822442 6.33834 1.17366 6.47058L4.44866 7.72019C4.52323 7.7487 4.59113 7.79226 4.64812 7.84816C4.70511 7.90406 4.74997 7.9711 4.77991 8.04509L6.02991 11.3253C6.15715 11.6715 6.38804 11.97 6.69114 12.1802C6.99423 12.3904 7.35478 12.502 7.72366 12.5H7.76741C8.14304 12.4931 8.50713 12.369 8.80862 12.1449C9.11012 11.9208 9.33392 11.608 9.44866 11.2504L12.4049 2.39683C12.5124 2.07752 12.5284 1.7345 12.4511 1.40657C12.3738 1.07863 12.2062 0.778863 11.9674 0.541154ZM11.2487 2.0032L8.26116 10.863C8.22647 10.9751 8.15679 11.0732 8.06233 11.1429C7.96786 11.2126 7.85357 11.2503 7.73616 11.2504C7.61944 11.2523 7.50491 11.2186 7.40778 11.1539C7.31065 11.0892 7.23553 10.9964 7.19241 10.888L5.94241 7.60773C5.85178 7.36938 5.71203 7.15275 5.53221 6.97191C5.35239 6.79107 5.13653 6.65007 4.89866 6.55805L1.61741 5.30844C1.50672 5.26789 1.41156 5.1936 1.3454 5.09606C1.27923 4.99852 1.24539 4.88266 1.24866 4.76485C1.24875 4.64748 1.28642 4.53322 1.35614 4.43878C1.42587 4.34435 1.52399 4.27469 1.63616 4.24002L10.4987 1.28468C10.6004 1.24322 10.712 1.23211 10.8199 1.2527C10.9279 1.27329 11.0275 1.32469 11.1068 1.40069C11.1862 1.4767 11.2418 1.57404 11.2669 1.68097C11.2921 1.78789 11.2858 1.89981 11.2487 2.0032Z" fill="#767676"/>
</svg>
