<svg width="12" height="14" viewBox="0 0 12 14" fill="#FA835F" xmlns="http://www.w3.org/2000/svg">
<path d="M3.52667 7.86065C3.46418 7.92263 3.41459 7.99636 3.38074 8.0776C3.34689 8.15884 3.32947 8.24598 3.32947 8.33398C3.32947 8.42199 3.34689 8.50913 3.38074 8.59037C3.41459 8.67161 3.46418 8.74534 3.52667 8.80732L5.52667 10.8073C5.58864 10.8698 5.66238 10.9194 5.74362 10.9532C5.82486 10.9871 5.91199 11.0045 6 11.0045C6.08801 11.0045 6.17515 10.9871 6.25638 10.9532C6.33762 10.9194 6.41136 10.8698 6.47333 10.8073L8.47333 8.80732C8.59887 8.68178 8.66939 8.51152 8.66939 8.33398C8.66939 8.15645 8.59887 7.98619 8.47333 7.86065C8.3478 7.73512 8.17754 7.66459 8 7.66459C7.82247 7.66459 7.6522 7.73512 7.52667 7.86065L6.66667 8.72732V1.00065C6.66667 0.82384 6.59643 0.654271 6.4714 0.529246C6.34638 0.404222 6.17681 0.333984 6 0.333984C5.82319 0.333984 5.65362 0.404222 5.5286 0.529246C5.40357 0.654271 5.33333 0.82384 5.33333 1.00065V8.72732L4.47333 7.86065C4.41136 7.79817 4.33762 7.74857 4.25638 7.71472C4.17515 7.68088 4.08801 7.66345 4 7.66345C3.91199 7.66345 3.82486 7.68088 3.74362 7.71472C3.66238 7.74857 3.58864 7.79817 3.52667 7.86065ZM10 5.00065H8.66667C8.48986 5.00065 8.32029 5.07089 8.19526 5.19591C8.07024 5.32094 8 5.49051 8 5.66732C8 5.84413 8.07024 6.0137 8.19526 6.13872C8.32029 6.26375 8.48986 6.33398 8.66667 6.33398H10C10.1768 6.33398 10.3464 6.40422 10.4714 6.52925C10.5964 6.65427 10.6667 6.82384 10.6667 7.00065V11.6673C10.6667 11.8441 10.5964 12.0137 10.4714 12.1387C10.3464 12.2637 10.1768 12.334 10 12.334H2C1.82319 12.334 1.65362 12.2637 1.5286 12.1387C1.40357 12.0137 1.33333 11.8441 1.33333 11.6673V7.00065C1.33333 6.82384 1.40357 6.65427 1.5286 6.52925C1.65362 6.40422 1.82319 6.33398 2 6.33398H3.33333C3.51014 6.33398 3.67971 6.26375 3.80474 6.13872C3.92976 6.0137 4 5.84413 4 5.66732C4 5.49051 3.92976 5.32094 3.80474 5.19591C3.67971 5.07089 3.51014 5.00065 3.33333 5.00065H2C1.46957 5.00065 0.960859 5.21136 0.585787 5.58644C0.210714 5.96151 0 6.47022 0 7.00065V11.6673C0 12.1978 0.210714 12.7065 0.585787 13.0815C0.960859 13.4566 1.46957 13.6673 2 13.6673H10C10.5304 13.6673 11.0391 13.4566 11.4142 13.0815C11.7893 12.7065 12 12.1978 12 11.6673V7.00065C12 6.47022 11.7893 5.96151 11.4142 5.58644C11.0391 5.21136 10.5304 5.00065 10 5.00065Z" />
</svg>
