<svg width="80" height="80" viewBox="0 0 80 80" fill="white" xmlns="http://www.w3.org/2000/svg">
<path d="M37.8728 44.7905C37.8352 44.7811 37.854 44.7811 37.8728 44.7905V44.7905Z" />
<path d="M37.995 44.9411L37.7314 44.8752L37.7409 44.7528L37.7691 44.6399L37.995 44.6964V44.9411Z" fill="#73497B"/>
<path d="M30.1929 70.6541C30.1929 71.2093 30.6446 71.6705 31.2093 71.6705C31.774 71.6705 32.2258 71.2188 32.2258 70.6541V70.0329C32.2258 68.4517 32.6117 67.3035 33.3929 66.5129C34.8799 65.0352 37.6376 65.0446 40.8282 65.0541C41.1388 65.0541 41.4493 65.0541 41.7599 65.0541C44.9035 65.0541 48.367 61.8635 48.6117 58.7388L48.6211 58.5976L48.7623 58.6352C51.4823 59.4352 54.3435 59.4541 57.054 58.6823L57.1952 58.6446L57.2046 58.7858C57.7599 65.1199 61.2517 65.4023 66.5411 65.8258C67.3882 65.8917 68.2446 65.967 69.1858 66.0611L69.647 66.1176C71.7082 66.2964 74.0423 66.4941 74.0423 70.6541C74.0423 71.2188 74.5035 71.6799 75.0682 71.6799C75.6329 71.6799 76.094 71.2188 76.094 70.6541C76.094 64.6493 71.9246 64.2635 70.1458 64.1035L69.8352 64.0752L70.0893 63.887C74.654 60.6211 74.2023 54.5035 73.8446 49.5811C73.6846 47.4541 73.5435 45.4494 73.7976 43.9623L74.0423 42.5223C74.9835 37.1199 75.8682 32.0282 72.7905 26.6823C69.0352 20.1505 62.607 16.0282 55.1623 15.3788C50.4658 14.9646 45.4399 16.1599 40.9882 18.7294C40.5552 18.9835 40.4046 19.5388 40.6588 19.9717C40.7811 20.1788 40.9788 20.3294 41.214 20.3952C41.4493 20.4611 41.694 20.4235 41.9011 20.3011C46.0235 17.9105 50.6823 16.7999 55.0023 17.1858C61.8446 17.7882 67.7552 21.5717 71.2093 27.5858C73.9576 32.3576 73.167 36.9223 72.2446 42.2117L71.9905 43.6611C71.6988 45.3741 71.8588 47.4823 72.0188 49.7129C72.4517 55.6894 72.9129 61.8729 66.0423 63.7364L66.0235 63.7458H66.0046C61.0258 63.3317 59.4446 62.9646 59.1999 57.9952V57.9199L59.2752 57.8823C64.6023 55.4164 68.0376 50.0611 68.0376 44.2258V39.0682C68.0376 34.6917 68.0376 34.6917 68.0093 34.3999C67.9717 33.9858 67.7646 33.6752 67.4352 33.5246C67.0964 33.3741 66.6823 33.4117 66.3811 33.6282C66.0893 33.8352 65.9482 34.1835 65.9858 34.5976C66.0046 34.7952 66.0046 34.9458 66.0046 38.8329V44.2258C66.0046 51.3882 60.1693 57.2235 53.007 57.2235C45.8446 57.2235 40.0093 51.3976 40.0093 44.2258C40.0093 42.3905 39.9999 40.8564 39.9811 39.6235V39.4541L40.0376 39.4164C42.5223 37.807 45.694 37.3082 48.7623 36.8188C49.2988 36.7341 49.8352 36.6494 50.3623 36.5646C56.1223 35.5858 59.7082 33.5529 61.327 30.3529C61.4399 30.1364 61.4588 29.8917 61.3835 29.6564C61.3082 29.4211 61.1482 29.2423 60.9317 29.1294C60.7152 29.0164 60.4705 28.9976 60.2352 29.0729C59.9999 29.1482 59.8211 29.3082 59.7082 29.5246C58.3717 32.1694 55.2188 33.8823 50.0611 34.7576C49.5435 34.8423 49.0164 34.927 48.4799 35.0117C44.7905 35.5952 40.9788 36.1976 38.0423 38.5882C34.8705 41.1764 34.4376 44.7341 34.4376 47.8682C34.4376 48.367 34.8423 48.7811 35.3505 48.7811C35.8588 48.7811 36.2635 48.3764 36.2635 47.8682C36.2635 44.9505 36.7435 42.9646 37.8258 41.4494L38.0329 41.1576L38.0423 41.5717C38.0423 41.5999 38.0423 41.6376 38.0423 41.6752V42.2399C38.0423 43.0494 38.0329 43.8776 37.9952 44.6776L38.014 44.687L37.9952 44.847C38.2305 50.4094 41.4964 55.3599 46.5505 57.7694L46.6164 57.7976V58.1741C46.6164 60.8376 44.4423 63.0117 41.7693 63.0117C35.6705 63.0117 30.2023 63.5482 30.2023 70.0141L30.1929 70.6541Z" />
<path d="M34.2492 29.9105L34.3057 29.9011L42.2963 27.8776C42.5692 27.8023 42.7763 27.6423 42.8798 27.407C42.9363 27.2847 42.9551 27.1153 42.9457 26.9835C42.8986 26.56 42.5504 26.2306 42.1551 26.2306L28.781 25.7223L35.9716 15.5294C36.0281 15.4635 36.0469 15.4164 36.0751 15.36C36.2257 15.0211 36.141 14.607 35.8681 14.3435C35.5104 14.0329 35.0304 14.0141 34.6822 14.2964L20.6869 25.4117H20.6398L11.9245 25.0823C11.8398 25.0823 11.7551 25.1105 11.6704 25.1388L11.5763 25.167L11.5292 25.0823C10.701 23.5294 9.11041 22.5223 7.35982 22.4564C6.04217 22.4094 4.79041 22.8706 3.82099 23.7741C2.85158 24.6682 2.29629 25.8917 2.24923 27.2C2.1457 29.9105 4.27276 32.207 6.99276 32.3106C8.30099 32.3576 9.56217 31.8964 10.5316 31.0023C10.9833 30.5882 11.3504 30.08 11.6233 29.4964L11.661 29.4117L17.7222 30.9835L14.8422 37.807L14.7575 37.7976C14.5881 37.7788 14.4375 37.76 14.2963 37.76C12.9975 37.7129 11.7269 38.1741 10.7575 39.0776C9.78805 39.9717 9.23276 41.1953 9.1857 42.5035C9.08217 45.2141 11.2092 47.5105 13.9292 47.6141C15.2469 47.6611 16.4986 47.2 17.4681 46.3058C17.9669 45.8447 18.3622 45.2988 18.6257 44.6776C18.8704 44.1129 19.0116 43.5011 19.0398 42.8705C19.0681 42.0235 18.8798 41.1858 18.4939 40.4329L18.4563 40.367L18.5033 40.3105C18.5222 40.2917 18.5316 40.2729 18.5504 40.2635L18.5692 40.2447L23.9904 32.5458L24.0469 32.527L32.0281 30.5129L31.9433 30.7294C31.4916 31.8588 31.0492 33.0447 30.5975 34.3435C29.6281 37.0917 28.6398 39.9247 27.0869 42.3435C26.6728 42.9929 26.221 43.6047 25.741 44.2541C25.0257 45.2329 24.2916 46.2305 23.6892 47.3317C20.5269 53.1858 22.4281 61.3458 27.8398 65.1576C27.9904 65.2705 28.1786 65.327 28.3669 65.327C28.6586 65.327 28.941 65.1858 29.1104 64.9411C29.2516 64.7435 29.3081 64.4988 29.261 64.2635C29.2233 64.0282 29.0822 63.8117 28.8845 63.6705C24.1881 60.367 22.541 53.28 25.2892 48.1976C25.8257 47.2094 26.4939 46.3058 27.1904 45.3458C27.6704 44.6964 28.1598 44.0282 28.6116 43.3223C30.2775 40.7341 31.3033 37.7976 32.301 34.9553C32.8657 33.3364 33.4775 31.6329 34.2116 30.0047L34.2492 29.9105ZM9.39276 29.76C8.78099 30.3247 7.99982 30.6258 7.18099 30.6258C7.14335 30.6258 7.09629 30.6258 7.05864 30.6258C5.26099 30.56 3.85864 29.0447 3.92452 27.247C3.94335 26.8329 4.02805 26.4376 4.19747 26.0611C4.72452 24.8658 5.88217 24.1129 7.18099 24.1129C7.21864 24.1129 7.2657 24.1129 7.30335 24.1129C8.16923 24.1411 8.97864 24.5176 9.57158 25.1576C10.1645 25.7976 10.4751 26.6258 10.4375 27.4917C10.3998 28.367 10.0328 29.1764 9.39276 29.76ZM30.8798 19.6141L26.6257 25.6376L23.4445 25.5153L30.8798 19.6141ZM16.3292 45.0541C15.7175 45.6188 14.9363 45.92 14.1175 45.92C14.0798 45.92 14.0328 45.92 13.9951 45.92C12.1975 45.8541 10.7951 44.3388 10.861 42.5411C10.8798 42.127 10.9645 41.7317 11.1339 41.3553C11.6798 40.1223 12.8845 39.3694 14.2398 39.407C15.1057 39.4353 15.9151 39.8117 16.5081 40.4517C17.101 41.0917 17.4116 41.92 17.3739 42.7858C17.3363 43.6517 16.9598 44.4611 16.3292 45.0541ZM17.2892 38.8988L17.1951 38.8235C17.0069 38.6729 16.8281 38.5505 16.6492 38.4376L16.5645 38.3811L16.6022 38.287L19.5104 31.407L22.0986 32.0658L17.2892 38.8988ZM23.8492 30.8047L23.821 30.7953L12.0845 27.7647L12.0939 27.6705C12.0939 27.6517 12.1033 27.6235 12.1033 27.6047C12.1033 27.5858 12.1128 27.5764 12.1128 27.5576C12.1222 27.36 12.1128 27.1529 12.0845 26.8988L12.0751 26.767L36.2351 27.6705L23.8492 30.8047Z" />
</svg>
