<svg width="24" height="24" viewBox="0 0 24 24" fill="none" xmlns="http://www.w3.org/2000/svg">
<path d="M18 2H8C6.93913 2 5.92172 2.42143 5.17157 3.17157C4.42143 3.92172 4 4.93913 4 6V18C4 19.0609 4.42143 20.0783 5.17157 20.8284C5.92172 21.5786 6.93913 22 8 22H18C18.5304 22 19.0391 21.7893 19.4142 21.4142C19.7893 21.0391 20 20.5304 20 20V4C20 3.46957 19.7893 2.96086 19.4142 2.58579C19.0391 2.21071 18.5304 2 18 2ZM6 6C6 5.46957 6.21071 4.96086 6.58579 4.58579C6.96086 4.21071 7.46957 4 8 4H18V14H8C7.29504 14.003 6.60399 14.1964 6 14.56V6ZM8 20C7.46957 20 6.96086 19.7893 6.58579 19.4142C6.21071 19.0391 6 18.5304 6 18C6 17.4696 6.21071 16.9609 6.58579 16.5858C6.96086 16.2107 7.46957 16 8 16H18V20H8Z" fill="black"/>
<path d="M13.1211 10.2031H11.6367V10.0547C11.6367 9.80208 11.6654 9.59766 11.7227 9.44141C11.7799 9.28255 11.8646 9.13802 11.9766 9.00781C12.0911 8.8776 12.3464 8.64844 12.7422 8.32031C12.9531 8.14844 13.0586 7.99089 13.0586 7.84766C13.0586 7.70443 13.0156 7.59375 12.9297 7.51562C12.8464 7.4349 12.7188 7.39453 12.5469 7.39453C12.362 7.39453 12.2083 7.45573 12.0859 7.57812C11.9661 7.70052 11.8893 7.91406 11.8555 8.21875L10.3398 8.03125C10.3919 7.47396 10.5938 7.02604 10.9453 6.6875C11.2995 6.34635 11.8411 6.17578 12.5703 6.17578C13.138 6.17578 13.5964 6.29427 13.9453 6.53125C14.4193 6.85156 14.6562 7.27865 14.6562 7.8125C14.6562 8.03385 14.5951 8.2474 14.4727 8.45312C14.3503 8.65885 14.1003 8.91016 13.7227 9.20703C13.4596 9.41536 13.293 9.58333 13.2227 9.71094C13.1549 9.83594 13.1211 10 13.1211 10.2031ZM11.5859 10.5977H13.1758V12H11.5859V10.5977Z" fill="black"/>
</svg>
