<svg width="28" height="28" viewBox="0 0 28 28" fill="none" xmlns="http://www.w3.org/2000/svg">
<path d="M13.9998 10.6933C13.3458 10.6933 12.7065 10.8872 12.1628 11.2506C11.619 11.6139 11.1951 12.1303 10.9449 12.7346C10.6946 13.3388 10.6291 14.0036 10.7567 14.6451C10.8843 15.2865 11.1992 15.8757 11.6617 16.3381C12.1241 16.8006 12.7133 17.1155 13.3547 17.2431C13.9962 17.3707 14.661 17.3052 15.2652 17.0549C15.8695 16.8046 16.3859 16.3808 16.7492 15.837C17.1126 15.2933 17.3065 14.654 17.3065 14C17.3065 13.5657 17.221 13.1357 17.0548 12.7346C16.8886 12.3334 16.6451 11.9688 16.338 11.6618C16.031 11.3547 15.6664 11.1112 15.2652 10.945C14.8641 10.7788 14.4341 10.6933 13.9998 10.6933ZM27.2398 7.42663C27.2328 6.39697 27.0432 5.37672 26.6798 4.41329C26.4122 3.70831 25.9981 3.06808 25.4649 2.53487C24.9317 2.00166 24.2915 1.58758 23.5865 1.31996C22.6231 0.956578 21.6028 0.766974 20.5732 0.759959C18.8532 0.666626 18.3465 0.666626 13.9998 0.666626C9.65317 0.666626 9.1465 0.666626 7.4265 0.759959C6.39685 0.766974 5.3766 0.956578 4.41317 1.31996C3.70818 1.58758 3.06796 2.00166 2.53475 2.53487C2.00154 3.06808 1.58746 3.70831 1.31984 4.41329C0.956456 5.37672 0.766852 6.39697 0.759837 7.42663C0.666504 9.14663 0.666504 9.65329 0.666504 14C0.666504 18.3466 0.666504 18.8533 0.759837 20.5733C0.774189 21.6066 0.963536 22.6299 1.31984 23.6C1.58627 24.3017 2.00001 24.9382 2.53317 25.4666C3.0641 26.003 3.70569 26.4171 4.41317 26.68C5.3766 27.0433 6.39685 27.2329 7.4265 27.24C9.1465 27.3333 9.65317 27.3333 13.9998 27.3333C18.3465 27.3333 18.8532 27.3333 20.5732 27.24C21.6028 27.2329 22.6231 27.0433 23.5865 26.68C24.294 26.4171 24.9356 26.003 25.4665 25.4666C25.9997 24.9382 26.4134 24.3017 26.6798 23.6C27.0429 22.6318 27.2324 21.6072 27.2398 20.5733C27.3332 18.8533 27.3332 18.3466 27.3332 14C27.3332 9.65329 27.3332 9.14663 27.2398 7.42663ZM23.8532 18.0933C23.8104 18.9161 23.6348 19.7266 23.3332 20.4933C23.0743 21.1329 22.6895 21.7139 22.2016 22.2018C21.7138 22.6896 21.1328 23.0744 20.4932 23.3333C19.7192 23.6181 18.9042 23.7757 18.0798 23.8H9.91984C9.09548 23.7757 8.28049 23.6181 7.5065 23.3333C6.84531 23.0876 6.24821 22.6956 5.75984 22.1866C5.27673 21.7083 4.90363 21.1305 4.6665 20.4933C4.38058 19.7201 4.22731 18.9042 4.21317 18.08V14V9.91996C4.22731 9.09573 4.38058 8.27981 4.6665 7.50663C4.91221 6.84543 5.3042 6.24833 5.81317 5.75996C6.29362 5.27946 6.87086 4.90675 7.5065 4.66663C8.28049 4.38183 9.09548 4.22424 9.91984 4.19996H18.0798C18.9042 4.22424 19.7192 4.38183 20.4932 4.66663C21.1544 4.91233 21.7515 5.30433 22.2398 5.81329C22.7229 6.29162 23.096 6.86947 23.3332 7.50663C23.618 8.28061 23.7756 9.0956 23.7998 9.91996V14C23.7998 16.7466 23.8932 17.0266 23.8532 18.08V18.0933ZM21.7198 8.17329C21.5611 7.74261 21.3108 7.35148 20.9862 7.02691C20.6616 6.70234 20.2705 6.45204 19.8398 6.29329C19.2485 6.08831 18.6256 5.98901 17.9998 5.99996H9.99984C9.37086 6.00611 8.74793 6.12347 8.15984 6.34663C7.73574 6.49817 7.34876 6.73824 7.02462 7.05089C6.70047 7.36354 6.44659 7.74161 6.27984 8.15996C6.08621 8.75378 5.99161 9.37542 5.99984 9.99996V18C6.01306 18.6282 6.1302 19.25 6.3465 19.84C6.50526 20.2706 6.75555 20.6618 7.08012 20.9863C7.40469 21.3109 7.79582 21.5612 8.2265 21.72C8.79539 21.9292 9.39404 22.0462 9.99984 22.0666H17.9998C18.6288 22.0605 19.2517 21.9431 19.8398 21.72C20.2705 21.5612 20.6616 21.3109 20.9862 20.9863C21.3108 20.6618 21.5611 20.2706 21.7198 19.84C21.943 19.2519 22.0604 18.6289 22.0665 18V14V9.99996C22.0669 9.37036 21.9493 8.74626 21.7198 8.15996V8.17329ZM13.9998 19.0933C13.3316 19.0933 12.6699 18.9615 12.0527 18.7053C11.4355 18.4492 10.8749 18.0738 10.403 17.6007C9.93112 17.1276 9.55721 16.566 9.3027 15.9481C9.04819 15.3302 8.91808 14.6682 8.91984 14C8.91984 12.992 9.2189 12.0068 9.77915 11.1689C10.3394 10.331 11.1357 9.67818 12.0671 9.29307C12.9986 8.90796 14.0234 8.80788 15.0117 9.00549C16.0001 9.2031 16.9076 9.68952 17.6194 10.4032C18.3312 11.1168 18.8152 12.0256 19.0103 13.0145C19.2053 14.0034 19.1025 15.0279 18.715 15.9584C18.3274 16.8888 17.6725 17.6833 16.8332 18.2414C15.9938 18.7995 15.0078 19.0959 13.9998 19.0933ZM19.3332 9.90663C19.0384 9.87543 18.7657 9.73625 18.5674 9.51592C18.3692 9.29559 18.2595 9.00968 18.2595 8.71329C18.2595 8.4169 18.3692 8.131 18.5674 7.91067C18.7657 7.69033 19.0384 7.55116 19.3332 7.51996C19.6279 7.55116 19.9007 7.69033 20.0989 7.91067C20.2972 8.131 20.4069 8.4169 20.4069 8.71329C20.4069 9.00968 20.2972 9.29559 20.0989 9.51592C19.9007 9.73625 19.6279 9.87543 19.3332 9.90663Z" fill="#FA835F"/>
</svg>
