<svg width="80" height="80" viewBox="0 0 80 80" fill="white" xmlns="http://www.w3.org/2000/svg">
<path d="M36.2635 64.7059C34.9929 64.2918 33.967 63.266 33.5153 61.9483C33.487 61.8824 33.4023 61.6754 33.1859 61.5907C33.0447 61.506 32.847 61.506 32.7623 61.5248L32.6682 61.5436C32.4706 61.6283 32.32 61.7789 32.2635 61.9577C31.8212 63.2565 30.7953 64.2824 29.5153 64.7059C29.167 64.8377 28.9788 65.2048 29.1106 65.5907C29.167 65.713 29.2517 65.8165 29.3647 65.9012L30.6259 66.7389C31.2659 67.1718 31.7741 67.7554 32.1035 68.4142L32.2917 68.7907C32.367 68.9507 32.4988 69.073 32.6682 69.1295C32.7435 69.1577 32.8282 69.1671 32.9035 69.1671C32.9976 69.1671 33.0917 69.1483 33.167 69.1107C33.327 69.0448 33.4306 68.9412 33.487 68.8001L33.6847 68.4142C34.0047 67.7554 34.5129 67.1718 35.1529 66.7389L36.4235 65.9012C36.7247 65.6848 36.8094 65.2895 36.6117 64.9977C36.5459 64.8659 36.4329 64.7718 36.2635 64.7059ZM34.7012 65.4495L34.4188 65.6377C33.8729 66.0048 33.3835 66.4754 32.9976 67.0024L32.8941 67.1436L32.7812 67.0024C32.3953 66.4754 31.9059 66.0048 31.36 65.6377L31.0776 65.4495L31.2376 65.3459C31.8117 64.9789 32.3388 64.4801 32.7812 63.8683L32.8941 63.7177L32.9976 63.8683C33.44 64.4895 33.967 64.9789 34.5317 65.3459L34.7012 65.4495Z" />
<path d="M38.0611 37.1482C40.1411 35.8212 42.7293 36.0753 44.6493 37.7977C44.8093 37.9388 45.007 38.0047 45.1952 38.0047C45.4211 38.0047 45.647 37.9106 45.807 37.7318C46.1082 37.393 46.0799 36.8659 45.7411 36.5647C43.247 34.3435 39.887 34.0235 37.167 35.7553C36.7811 36 36.6682 36.5082 36.9129 36.8941C37.167 37.28 37.6752 37.393 38.0611 37.1482Z" />
<path d="M59.4729 35.7553C56.7529 34.0235 53.3929 34.3435 50.8988 36.5647C50.5599 36.8659 50.5317 37.393 50.8329 37.7318C50.9929 37.9106 51.2187 38.0047 51.4446 38.0047C51.6423 38.0047 51.8399 37.9388 51.9905 37.7977C53.9105 36.0753 56.4988 35.8212 58.5788 37.1482C58.9646 37.393 59.4729 37.28 59.7176 36.8941C59.9717 36.5082 59.8588 36 59.4729 35.7553Z" />
<path d="M45.4211 42.2684C45.327 41.826 44.894 41.5342 44.4517 41.6189C42.3058 42.0519 41.7411 42.1554 40.3387 42.1554H40.3293C39.614 42.1554 38.8611 41.9013 38.7199 41.6001C38.5223 41.186 38.0234 41.026 37.6187 41.2237C37.214 41.4213 37.0446 41.9201 37.2423 42.3248C37.7787 43.4166 39.2376 43.8025 40.3387 43.8025H40.3481C41.9105 43.7931 42.5599 43.6801 44.7905 43.2284C45.2234 43.1531 45.5058 42.7201 45.4211 42.2684Z" />
<path d="M58.7673 41.233C58.3626 41.0353 57.8637 41.2048 57.6661 41.6095C57.5249 41.9012 56.772 42.1647 56.0567 42.1647H56.0473C54.6355 42.1647 54.0802 42.0612 51.9343 41.6283C51.492 41.5342 51.0496 41.8259 50.9649 42.2777C50.8708 42.72 51.1626 43.1624 51.6143 43.2471C53.8449 43.6989 54.4943 43.8118 56.0567 43.8212H56.0661C57.1673 43.8212 58.6261 43.4353 59.1626 42.3436C59.3508 41.9295 59.1814 41.44 58.7673 41.233Z" />
<path d="M67.0119 64.8189L66.1366 64.7342L66.8519 64.2259C72.0095 60.5742 71.4919 53.6753 71.0872 48.1318C70.9083 45.6942 70.7389 43.4071 71.0307 41.6942L71.313 40.0565C72.386 33.9483 73.393 28.1883 69.9013 22.1648C65.6095 14.7953 58.2872 10.1365 49.7883 9.4024C44.9225 8.97887 39.7366 10.0706 35.0213 12.4518C34.7107 12.6024 34.4095 12.7624 34.1178 12.9318C33.9483 13.0259 33.7789 13.1012 33.6189 13.1953C33.5813 13.2142 33.5625 13.2424 33.5342 13.2706C26.0519 17.7506 23.5672 25.393 22.9931 27.5577C22.5601 28.6683 22.146 29.76 21.7789 30.7953C20.6683 33.9295 19.5201 37.1671 17.7319 39.9248C17.2519 40.6683 16.7342 41.3648 16.1789 42.0989C15.3507 43.2189 14.5131 44.3483 13.826 45.5906C11.426 49.9859 11.5295 55.6895 14.0236 60.3953L10.946 62.3342C10.3625 62.7012 9.95776 63.2659 9.80717 63.9342C9.65658 64.6024 9.76952 65.2895 10.1272 65.873C10.4942 66.4565 11.0589 66.8612 11.7272 67.0118C11.9248 67.0589 12.1131 67.0777 12.3107 67.0777C12.7813 67.0777 13.2519 66.9459 13.666 66.6824L17.1672 64.4801C17.6189 64.8942 18.0707 65.28 18.5413 65.6095C18.9178 65.873 19.4731 65.7695 19.7272 65.4024C19.8589 65.2142 19.906 64.9977 19.8683 64.7718C19.8307 64.5459 19.7083 64.3577 19.5201 64.2259C19.2283 64.0189 18.9366 63.793 18.6448 63.5483L21.826 61.5436L23.3695 60.96C26.2213 59.8871 27.6519 59.3412 30.3342 57.6848L36.7248 55.6895C39.6519 59.2283 43.8778 62.1365 48.0754 62.1365H48.1225H48.1319C48.1507 62.1365 48.1601 62.1365 48.1789 62.1365C50.0707 62.1365 51.9625 61.5342 53.7507 60.5648C54.0895 62.2306 55.1436 64.3483 57.5813 65.1953C57.5625 65.2142 57.5531 65.233 57.5342 65.2612C59.1907 65.7789 61.2425 65.9483 63.3978 66.1177C64.3389 66.193 65.3554 66.2777 66.4472 66.3812L66.9742 66.4283C69.7319 66.6636 71.6801 67.1906 71.6801 71.8589C71.6801 72.3859 72.1507 73.0353 72.706 73.0353C73.2519 73.0353 73.6848 72.6024 73.6848 72.0659C73.6754 65.4212 69.0072 64.9977 67.0119 64.8189ZM12.8942 65.4589C12.6401 65.6189 12.3389 65.6659 12.0472 65.6C11.7554 65.5342 11.5107 65.3553 11.3507 65.1012C11.1907 64.8471 11.1436 64.5459 11.2095 64.2542C11.2754 63.9624 11.4542 63.7177 11.7083 63.5577L19.4354 58.7765L20.6213 60.6777L12.8942 65.4589ZM35.8119 52.3859C36.0472 52.273 36.1507 51.9812 36.0378 51.7459C35.9248 51.5106 35.6425 51.4071 35.3978 51.5106L29.2801 54.3906L28.9225 53.8165L32.0189 51.7271C32.1225 51.6518 32.1978 51.5483 32.226 51.4165C32.2542 51.2942 32.226 51.1624 32.1507 51.0495C32.0754 50.9459 31.9719 50.8706 31.8401 50.8424C31.7083 50.8142 31.586 50.8424 31.4825 50.9177L28.4142 52.9883L27.6895 51.8306L32.6589 46.6353C32.9319 46.2683 33.4213 46.1365 33.8354 46.3248L33.8825 46.3624C36.5083 47.5483 38.1554 50.1742 38.0613 53.0542V53.1012C38.0425 53.553 37.7131 53.9389 37.2519 54.0236L30.4189 56.1977L29.7978 55.2095L35.8119 52.3859ZM25.9483 57.3553C25.9013 57.5436 25.9389 57.7412 26.0425 57.9012L26.2213 58.1836C25.0166 58.7577 23.7836 59.2753 22.5319 59.7459L21.826 60.0095L20.4989 57.8918L21.666 56.7906C23.3978 55.153 24.3672 54.2306 26.5883 52.8L29.0731 56.7718C28.5648 57.0824 28.4425 57.1295 28.2636 57.1953C28.1225 57.2518 27.9436 57.3177 27.5295 57.5248L27.2754 57.12C27.0589 56.7812 26.6166 56.6777 26.2778 56.8848C26.0989 57.0071 25.986 57.1671 25.9483 57.3553ZM62.3813 64.3953L62.3248 64.4142L62.2683 64.4048C60.7907 64.2824 59.6519 64.1601 58.7107 63.9812L58.7295 63.8965C55.8307 63.3036 55.313 60.6683 55.2189 59.6895C57.9483 57.8165 60.3013 55.1248 61.7695 52.433C63.586 49.1012 63.8401 45.9953 64.1319 42.3906L64.2354 41.1953C64.273 40.7436 63.9436 40.3389 63.4825 40.3012C63.0307 40.2542 62.626 40.593 62.5883 41.0542L62.4848 42.2589C62.2025 45.6753 61.9578 48.6212 60.3107 51.6424C57.9672 55.9436 52.9225 60.4989 48.1789 60.4989C48.1601 60.4989 48.1413 60.4989 48.1319 60.4989C48.113 60.4989 48.1036 60.4989 48.0848 60.4989C44.6213 60.4989 41.0166 58.08 38.4001 55.1059C39.0495 54.6824 39.4919 53.9671 39.5201 53.1577V53.1012C39.6331 49.6283 37.6566 46.4659 34.4942 45.0448L34.4472 45.0259C34.3436 44.9789 34.2401 44.9506 34.1366 44.9224C33.986 43.8118 33.8825 42.6636 33.7883 41.4589L33.6942 40.32H33.7036C33.7036 40.2918 33.506 37.7036 33.6189 35.6989C36.2731 34.4 39.4072 33.9012 42.4566 33.4212C43.0683 33.3271 43.6801 33.233 44.2919 33.1295C50.8519 32.0283 54.9272 29.7506 56.753 26.1742C56.8566 25.9765 56.8754 25.7412 56.8001 25.5342C56.7248 25.3177 56.5742 25.1483 56.3766 25.0448C56.2542 24.9883 56.1225 24.9506 55.9907 24.9506C55.8966 24.9506 55.8119 24.96 55.7272 24.9977C55.5107 25.0636 55.3319 25.2142 55.2378 25.4212C53.6754 28.4895 49.9954 30.4753 44.0095 31.473C43.4072 31.5765 42.8048 31.6706 42.1931 31.7648C37.9766 32.4236 33.6189 33.1106 30.2966 35.793C26.7107 38.6918 26.2307 42.6824 26.2307 46.2024C26.2307 46.6636 26.6166 47.0495 27.0872 47.0495C27.5578 47.0495 27.9436 46.673 27.9436 46.2024C27.9436 44.9036 28.0283 43.5953 28.2919 42.3153C28.4048 41.7883 28.5272 41.2518 28.7436 40.7624C29.2801 39.5012 30.8989 37.4306 31.6331 37.1295C31.7366 37.0918 31.8307 37.0636 31.9342 37.0353C31.9248 38.7295 32.0472 40.3389 32.0566 40.433H32.066L32.1601 41.5906C32.2542 42.7765 32.3578 43.9153 32.5083 45.0259C32.1319 45.1859 31.7931 45.4495 31.5389 45.7977L26.3531 51.2753C23.6895 52.9506 22.5695 54.0048 20.3578 56.0848L19.1719 57.2048L15.4919 59.5201C13.3366 55.3601 13.2707 50.2589 15.3695 46.4095C15.9907 45.2706 16.7531 44.2448 17.5625 43.153C18.1272 42.4 18.6919 41.6377 19.2001 40.8565C21.1013 37.9295 22.2778 34.5977 23.426 31.3789C23.7931 30.3342 24.1601 29.3742 24.5083 28.4706H24.5272C24.5272 28.4612 24.5366 28.4142 24.5554 28.3389C24.7154 27.9436 24.866 27.5577 25.026 27.1812L24.9131 27.1153C25.7883 24.4236 28.3578 18.353 34.4472 14.6918C34.466 14.6824 34.4942 14.6824 34.5131 14.6636C39.2942 11.9248 44.6778 10.6542 49.6848 11.0965C57.6095 11.7836 64.4613 16.1318 68.4613 23.0118C71.6519 28.4989 70.7389 33.7224 69.6754 39.7648L69.346 41.4118C69.0166 43.3318 69.1954 45.713 69.3836 48.2353C69.8731 54.8048 70.4189 62.2306 62.3813 64.3953Z" />
<path d="M49.6097 51.859C48.3956 51.8872 48.1791 52.5366 48.1509 52.8284C48.1509 52.8378 48.1415 52.8378 48.1415 52.8284C48.1227 52.5272 47.9815 51.8213 46.7674 51.8213C45.6379 51.8119 43.7744 53.7978 43.7744 53.7978C43.7744 53.7978 45.4309 56.2072 48.1509 56.2166C50.6168 56.226 52.5179 53.826 52.5179 53.826C52.5179 53.826 50.6356 51.8401 49.6097 51.859ZM48.1415 54.5319C47.3791 54.5319 46.2121 53.9766 46.2121 53.9766H50.3438C50.3438 53.9766 48.9038 54.5319 48.1415 54.5319Z" />
</svg>
