<svg width="48" height="48" viewBox="0 0 48 48" fill="black" xmlns="http://www.w3.org/2000/svg">
<path d="M42.2802 23.9901C42.0002 23.8201 41.6402 23.8601 41.4102 24.0901C41.3402 24.1701 39.5602 25.9301 36.5102 25.5401C36.1402 25.4901 35.7502 25.3501 35.3202 25.1501C35.6302 24.3401 35.8202 23.3701 35.8202 22.2101C35.8202 21.8201 35.5102 21.5101 35.1202 21.5101C34.7302 21.5101 34.4202 21.8201 34.4202 22.2101C34.4202 23.1001 34.2902 23.8501 34.0702 24.4801C33.9302 24.4001 33.8002 24.3301 33.6602 24.2401C33.0202 23.8701 32.3302 23.4601 31.5402 23.0501C31.7702 22.3501 31.9202 21.5301 31.9202 20.5401C31.9202 20.1501 31.6102 19.8401 31.2202 19.8401C30.8302 19.8401 30.5202 20.1501 30.5202 20.5401C30.5202 21.2901 30.4202 21.9101 30.2502 22.4401C29.3202 22.0401 28.2702 21.6701 27.0702 21.3801C27.2302 20.8301 27.3202 20.2201 27.3202 19.5501C27.3202 19.1601 27.0102 18.8501 26.6202 18.8501C26.2302 18.8501 25.9202 19.1601 25.9202 19.5501C25.9202 20.1401 25.8302 20.6501 25.6902 21.1001C24.5202 20.9001 23.2202 20.7901 21.7602 20.7901C14.7602 20.7901 7.22021 24.2501 7.22021 31.8601C7.22021 31.9001 7.23021 31.9401 7.24021 31.9801C7.24021 32.0101 7.25022 32.0401 7.25022 32.0601C7.27022 32.1401 7.31022 32.2201 7.36022 32.2901C7.52022 32.5001 11.3902 37.3701 20.1802 37.3701C28.1702 37.3701 32.6802 32.1201 33.5902 30.9401C33.7602 30.9701 33.9202 30.9901 34.0902 31.0001C34.5602 31.0801 36.9302 31.3901 39.2402 29.6601C40.6702 28.5901 41.7802 26.9601 42.5402 24.8101C42.6802 24.5101 42.5602 24.1601 42.2802 23.9901ZM32.9602 25.4501C33.1302 25.5501 33.2902 25.6401 33.4502 25.7401C32.5602 27.0501 31.3002 27.5501 30.7602 27.7201C30.1202 27.2601 29.4002 26.7901 28.6002 26.3301C29.4102 25.9801 30.3002 25.3701 30.9602 24.3401C31.7002 24.7101 32.3602 25.0901 32.9602 25.4501ZM29.6702 23.7201C28.6902 25.1101 27.1802 25.3601 26.7402 25.4001C26.1102 25.1401 25.4202 24.9101 24.6902 24.7201C25.3802 24.2401 26.0502 23.5801 26.5402 22.7001C27.7302 22.9801 28.7602 23.3301 29.6702 23.7201ZM20.6502 35.3101C18.0102 35.3101 15.8702 33.1601 15.8702 30.5201C15.8702 27.8801 18.0202 25.7401 20.6502 25.7401C23.2902 25.7401 25.4402 27.8901 25.4402 30.5201C25.4402 33.1601 23.2902 35.3101 20.6502 35.3101ZM21.7802 22.2001C22.9802 22.2001 24.0702 22.2901 25.0602 22.4301C24.1402 23.7001 22.7902 24.1801 22.4202 24.2801C21.7602 24.2001 21.0702 24.1601 20.3302 24.1601C14.7002 24.1601 10.9402 27.1901 8.97022 29.3601C10.5702 23.7801 17.4802 22.2001 21.7802 22.2001ZM8.83021 31.8001C9.61021 30.6801 12.0702 27.5901 16.2102 26.2201C15.1302 27.3301 14.4602 28.8501 14.4602 30.5201C14.4602 32.7401 15.6402 34.6901 17.4102 35.7801C12.4702 35.0901 9.72021 32.7101 8.83021 31.8001ZM24.4702 35.3801C25.9102 34.2501 26.8402 32.4901 26.8402 30.5201C26.8402 28.8901 26.2002 27.4101 25.1702 26.3101C27.4702 27.0701 29.1302 28.2601 30.4902 29.2301C31.1302 29.6901 31.7002 30.0901 32.2602 30.4101C31.3002 31.5101 28.6602 34.1801 24.4702 35.3801ZM38.4302 28.5501C36.4402 30.0401 34.4202 29.6401 34.3402 29.6201C34.2902 29.6101 34.2402 29.6001 34.1902 29.6001C33.6002 29.6001 32.9202 29.2101 32.1002 28.6501C32.9102 28.2501 33.9202 27.5601 34.6802 26.3901C35.2402 26.6601 35.7702 26.8501 36.3202 26.9201C37.9502 27.1301 39.2802 26.8301 40.2802 26.4101C39.7602 27.3001 39.1402 28.0201 38.4302 28.5501Z" />
<path d="M43.57 16.3901C40.96 13.4401 33.43 8.41007 29.08 7.77007C19.48 6.36007 6.23999 15.6901 6.09999 15.7901C5.11999 16.5101 4.90999 18.1301 5.62999 19.3201C6.07999 20.0601 6.91999 20.6501 8.12999 20.6501C8.80999 20.6501 9.60999 20.4601 10.52 20.0101C21.45 14.6001 23.8 14.0001 27.3 13.7801C29.57 13.6301 34.39 13.9801 38.37 15.5301C40.47 16.3501 42.78 18.1801 42.81 18.2001C42.85 18.2301 42.89 18.2601 42.93 18.2801C43.67 18.6601 44.05 18.2701 44.15 18.1501C44.6 17.5501 44.01 16.8801 43.57 16.3901ZM38.88 14.2201C34.36 12.4601 29.27 12.2401 27.21 12.3801C23.5 12.6201 21.05 13.2301 9.89999 18.7601C8.44999 19.4801 7.32999 19.4201 6.82999 18.5901C6.45999 17.9701 6.57999 17.1701 6.92999 16.9101C9.36999 15.1201 19.34 9.02007 27.04 9.02007C27.67 9.02007 28.29 9.06007 28.88 9.15007C31.6 9.55007 35.82 11.9301 39 14.2601C38.96 14.2501 38.92 14.2401 38.88 14.2201Z" />
<path d="M20.6501 33.03C22.0364 33.03 23.1601 31.9062 23.1601 30.52C23.1601 29.1338 22.0364 28.01 20.6501 28.01C19.2639 28.01 18.1401 29.1338 18.1401 30.52C18.1401 31.9062 19.2639 33.03 20.6501 33.03Z" />
</svg>
