<svg width="48" height="48" viewBox="0 0 48 48" fill="black" xmlns="http://www.w3.org/2000/svg">
<path d="M19.9 17.48C19.85 17.48 19.79 17.48 19.74 17.48C18.18 17.48 16.9 16.76 16.13 15.46C15.26 13.97 15.26 11.96 16.13 10.47C16.9 9.13995 18.22 8.45995 19.83 8.44995C21.43 8.45995 22.75 9.14995 23.53 10.47C24.4 11.96 24.4 13.97 23.53 15.46C22.76 16.76 21.47 17.48 19.9 17.48ZM19.81 16.08C21.21 16.09 21.95 15.37 22.31 14.75C22.93 13.7 22.93 12.23 22.31 11.17C21.95 10.55 21.23 9.84995 19.83 9.83995C19.82 9.83995 19.82 9.83995 19.81 9.83995C18.46 9.81995 17.69 10.55 17.33 11.17C16.71 12.22 16.71 13.69 17.33 14.75C17.7 15.37 18.44 16.09 19.81 16.08Z" />
<path d="M36.1202 37.79C34.5702 37.79 33.2802 37.08 32.5202 35.77C31.6502 34.28 31.6502 32.27 32.5202 30.78C33.2902 29.45 34.6202 28.76 36.2102 28.75C37.8302 28.75 39.1302 29.45 39.9102 30.77C40.7802 32.26 40.7802 34.27 39.9102 35.76C39.1302 37.09 37.8202 37.81 36.2002 37.78C36.1702 37.79 36.1402 37.79 36.1202 37.79ZM36.2002 36.39C37.6402 36.41 38.3402 35.68 38.7002 35.06C39.3202 34.01 39.3202 32.54 38.7002 31.48C38.3402 30.86 37.6102 30.18 36.2202 30.15C36.2102 30.15 36.2102 30.15 36.2002 30.15C34.8202 30.14 34.0902 30.86 33.7302 31.48C33.1202 32.53 33.1202 34.01 33.7302 35.06C34.0902 35.68 34.8002 36.4 36.2002 36.39Z" />
<path d="M31.92 42.37C30.1 42.37 29.38 40.21 28.84 38.63C28.69 38.18 28.54 37.72 28.38 37.39H9.39003C8.74003 37.47 8.16003 37.19 7.74003 36.6C6.96003 35.5 6.83003 33.4 7.47003 32.19C7.81003 31.56 8.33003 31.21 8.95003 31.21L27.7 29.71C30.12 29.41 31.35 32.94 32.33 35.79C32.63 36.67 32.93 37.52 33.18 38.02H39.2C39.96 38.02 40.62 38.37 41 39.01C41.41 39.72 41.41 40.66 41 41.37C40.62 42.01 39.96 42.38 39.19 42.36H32.01C31.98 42.37 31.95 42.37 31.92 42.37ZM9.35003 35.99H28.8C29.03 35.99 29.24 36.1 29.37 36.29C29.69 36.75 29.91 37.41 30.17 38.18C30.59 39.42 31.1 40.97 31.96 40.97C31.97 40.97 31.98 40.97 31.99 40.97H39.21C39.52 41.01 39.68 40.88 39.8 40.67C39.96 40.4 39.96 40 39.8 39.72C39.68 39.51 39.49 39.41 39.22 39.42H32.79C32.56 39.42 32.35 39.31 32.22 39.13C31.8 38.55 31.44 37.48 31.01 36.24C30.28 34.13 29.18 30.95 27.85 31.1L9.03003 32.6C9.01003 32.6 8.98003 32.6 8.96003 32.6C8.88003 32.6 8.79003 32.68 8.71003 32.84C8.32003 33.58 8.41003 35.11 8.88003 35.78C9.05003 36.02 9.17003 36.01 9.24003 35.99C9.27003 35.99 9.31003 35.99 9.35003 35.99Z" />
<path d="M12.4999 31.76C12.3899 31.76 12.2799 31.73 12.1699 31.68C11.8299 31.5 11.6999 31.07 11.8799 30.73C12.0499 30.42 12.2799 28.9 12.4899 27.56C13.2799 22.43 13.9999 18.76 15.9299 18.74C16.0299 18.71 15.8699 18.75 15.9299 18.74C16.0099 18.73 24.1299 17.6 25.1199 20.47L27.6599 27.29C27.9399 28.02 27.8299 28.79 27.3499 29.37C26.8299 30 25.9899 30.31 25.1999 30.17C24.4699 30.04 23.8999 29.54 23.6399 28.81L22.7299 26.36L21.3699 30.67C21.2499 31.04 20.8599 31.24 20.4899 31.13C20.1199 31.01 19.9199 30.62 20.0299 30.25L21.9999 23.99C22.0899 23.7 22.3499 23.51 22.6499 23.5C22.9499 23.5 23.2199 23.68 23.3199 23.96L24.9499 28.33C25.0499 28.6 25.2099 28.75 25.4399 28.79C25.7299 28.84 26.0799 28.71 26.2699 28.48C26.4299 28.28 26.4599 28.06 26.3499 27.78L23.7999 20.93C23.3399 19.6 17.5999 19.75 16.3399 20.05L15.9699 20.12C15.5499 20.08 14.8599 21.37 13.8699 27.75C13.5599 29.78 13.3799 30.87 13.1099 31.37C12.9899 31.63 12.7499 31.76 12.4999 31.76Z" />
<path d="M27.2499 40.2398H8.61992C8.22992 40.2398 7.91992 39.9298 7.91992 39.5398C7.91992 39.1498 8.22992 38.8398 8.61992 38.8398H27.2499C27.6399 38.8398 27.9499 39.1498 27.9499 39.5398C27.9499 39.9298 27.6399 40.2398 27.2499 40.2398Z" />
</svg>
