<svg width="68" height="58" viewBox="0 0 68 58" stroke="white" fill="white" xmlns="http://www.w3.org/2000/svg">
<g>
<path d="M41.8717 44.5434C39.7849 46.3766 38.4978 48.9509 39.0243 52.7538C39.6484 57.3759 44.1924 56.4983 46.7278 54.4896C47.9174 53.5534 48.8145 52.4418 49.4971 51.1937C50.6087 53.768 52.637 55.8157 56.3814 56.4788C60.9645 57.2979 61.5495 52.7343 60.3989 49.692C59.8333 48.1708 58.9752 46.9031 57.9026 45.8305C60.945 45.733 63.7728 44.5044 65.7816 40.7794C67.9853 36.6839 63.8118 34.7142 60.5744 34.8507C58.7412 34.9287 57.103 35.4553 55.6208 36.2939C56.5569 33.349 56.3034 30.1896 53.2415 27.0107C50.0236 23.6563 46.8643 27.0107 45.9867 30.1311C45.4991 31.9058 45.4991 33.661 45.8501 35.3577C43.3929 33.7391 40.448 33.1735 36.6645 34.9872C32.4715 37.0154 34.6948 41.0524 37.3861 42.8467C38.8098 43.8023 40.3115 44.3288 41.8717 44.5434Z"  stroke-width="2" stroke-miterlimit="22.9256" stroke-linecap="round" stroke-linejoin="round"/>
<path d="M6.72827 25.0605C18.3517 14.8998 25.8601 10.8043 33.622 5.85071C37.0349 3.66645 40.3503 1.40417 44.6408 1.40417C53.3974 1.40417 60.4963 8.50303 60.4963 17.2596C60.4963 21.4916 58.9946 25.4896 56.1472 28.1614"  stroke-width="2" stroke-miterlimit="22.9256" stroke-linecap="round" stroke-linejoin="round"/>
<path d="M39.1996 44.0363L31.6327 51.1156C25.86 56.5178 17.7081 56.8298 10.9992 53.5729C3.04228 49.7115 -0.70217 39.6483 2.63273 31.1257C5.96763 22.6032 15.1142 18.8197 23.0712 22.6812C29.0389 25.5871 31.8473 33.115 29.351 39.5117C26.8547 45.9085 19.9898 48.7364 14.0221 45.85C10.0436 43.9193 8.1714 38.8877 9.8291 34.6167C11.4868 30.3456 16.0699 28.4539 20.0483 30.3846C22.0376 31.3598 22.9737 33.8561 22.1351 36.0013C21.2965 38.1271 19.0147 39.0827 17.0255 38.1076"  stroke-width="2" stroke-miterlimit="22.9256" stroke-linecap="round" stroke-linejoin="round"/>
<path d="M50.3746 39.2192C52.3249 39.2192 53.9241 40.7989 53.9241 42.7687C53.9241 44.7189 52.3444 46.3181 50.3746 46.3181C48.4244 46.3181 46.8252 44.7384 46.8252 42.7687C46.8252 40.7989 48.4049 39.2192 50.3746 39.2192Z"  stroke-width="2" stroke-miterlimit="22.9256" stroke-linecap="round" stroke-linejoin="round"/>
</g>
<defs>
<clipPath id="clip0">
<rect width="67.8097" height="58" />
</clipPath>
</defs>
</svg>
