<svg width="24" height="20" viewBox="0 0 24 20" fill="none" xmlns="http://www.w3.org/2000/svg">
<path d="M17 18.0001H5C4.20435 18.0001 3.44129 17.684 2.87868 17.1214C2.31607 16.5588 2 15.7958 2 15.0001V7.00012C2 6.73491 1.89464 6.48055 1.70711 6.29302C1.51957 6.10548 1.26522 6.00012 1 6.00012C0.734784 6.00012 0.48043 6.10548 0.292893 6.29302C0.105357 6.48055 0 6.73491 0 7.00012L0 15.0001C0 16.3262 0.526784 17.598 1.46447 18.5357C2.40215 19.4733 3.67392 20.0001 5 20.0001H17C17.2652 20.0001 17.5196 19.8948 17.7071 19.7072C17.8946 19.5197 18 19.2653 18 19.0001C18 18.7349 17.8946 18.4806 17.7071 18.293C17.5196 18.1055 17.2652 18.0001 17 18.0001ZM21 0.00012207H7C6.20435 0.00012207 5.44129 0.316193 4.87868 0.878802C4.31607 1.44141 4 2.20447 4 3.00012V13.0001C4 13.7958 4.31607 14.5588 4.87868 15.1214C5.44129 15.6841 6.20435 16.0001 7 16.0001H21C21.7956 16.0001 22.5587 15.6841 23.1213 15.1214C23.6839 14.5588 24 13.7958 24 13.0001V3.00012C24 2.20447 23.6839 1.44141 23.1213 0.878802C22.5587 0.316193 21.7956 0.00012207 21 0.00012207ZM20.59 2.00012L14.71 7.88012C14.617 7.97385 14.5064 8.04824 14.3846 8.09901C14.2627 8.14978 14.132 8.17592 14 8.17592C13.868 8.17592 13.7373 8.14978 13.6154 8.09901C13.4936 8.04824 13.383 7.97385 13.29 7.88012L7.41 2.00012H20.59ZM22 13.0001C22 13.2653 21.8946 13.5197 21.7071 13.7072C21.5196 13.8948 21.2652 14.0001 21 14.0001H7C6.73478 14.0001 6.48043 13.8948 6.29289 13.7072C6.10536 13.5197 6 13.2653 6 13.0001V3.37012L11.88 9.25012C12.4425 9.81192 13.205 10.1275 14 10.1275C14.795 10.1275 15.5575 9.81192 16.12 9.25012L22 3.37012V13.0001Z" fill="#FA835F"/>
</svg>
