<svg width="48" height="48" viewBox="0 0 48 48" fill="#231F20" xmlns="http://www.w3.org/2000/svg">
<path d="M22.3903 34.6602C22.2503 34.2702 21.7303 34.1202 21.2203 34.3102L17.1603 35.8202C16.9303 35.9002 16.7403 36.0502 16.6103 36.2202C16.5903 36.2502 16.5903 36.2802 16.5703 36.3102H16.5603V36.3202C16.4603 36.5002 16.4303 36.6802 16.4903 36.8502C16.5503 37.0202 16.7003 37.1302 16.8903 37.2102V37.2202H16.9003C16.9303 37.2302 16.9503 37.2502 16.9803 37.2602C17.0603 37.2802 17.1303 37.2902 17.2203 37.2902C17.3603 37.2902 17.5203 37.2602 17.6603 37.2102L21.7203 35.7002C22.0003 35.6002 22.2003 35.4202 22.3203 35.2102C22.4203 35.0302 22.4603 34.8402 22.3903 34.6602Z" />
<path d="M22.1603 36.8101C22.0203 36.4201 21.5003 36.2701 20.9903 36.4601L18.7403 37.3001C18.5103 37.3801 18.3203 37.5301 18.1903 37.7001C18.1703 37.7301 18.1703 37.7601 18.1503 37.7901H18.1403V37.8001C18.0403 37.9801 18.0103 38.1601 18.0703 38.3301C18.1703 38.6001 18.4603 38.7601 18.8003 38.7601C18.9403 38.7601 19.0903 38.7301 19.2403 38.6801L21.4903 37.8501C21.7703 37.7501 21.9703 37.5701 22.0903 37.3601C22.1903 37.1701 22.2203 36.9901 22.1603 36.8101Z" />
<path d="M34.3599 34.3402C34.1399 34.2602 33.8699 34.2602 33.5899 34.3602L29.5299 35.8702C29.2499 35.9702 29.0499 36.1502 28.9299 36.3602C28.8299 36.5302 28.7999 36.7202 28.8599 36.9002C28.9599 37.1702 29.2499 37.3302 29.5899 37.3302C29.7299 37.3302 29.8799 37.3002 30.0299 37.2502L34.0899 35.7402C34.6099 35.5502 34.8999 35.1002 34.7499 34.7102C34.6999 34.5302 34.5499 34.4102 34.3599 34.3402Z" />
<path d="M41.8101 8.64012C41.4901 8.42012 41.0601 8.50012 40.8401 8.82012L39.4801 10.8101L36.9301 9.05012L34.6401 7.47012L36.0201 5.48012C36.2401 5.16012 36.1601 4.73012 35.8401 4.51012C35.5201 4.29012 35.0901 4.37012 34.8701 4.69012L33.1001 7.25012C32.9901 7.40012 32.9501 7.59012 32.9901 7.77012C33.0201 7.95012 33.1301 8.11012 33.2801 8.22012L35.5701 9.80012L32.1501 14.7501C30.7501 13.9001 28.9701 14.1101 27.7901 15.3501L24.8701 19.1701C24.6401 19.4801 24.6901 19.9101 25.0001 20.1501L29.7201 23.8101C29.8401 23.9101 29.9901 23.9601 30.1501 23.9601C30.1901 23.9601 30.2301 23.9601 30.2701 23.9501C30.3401 23.9401 30.4001 23.9001 30.4601 23.8701C30.4901 23.9501 30.5101 24.0301 30.5401 24.1201C31.0101 25.6801 30.8601 26.8701 30.1001 27.6501C29.3601 28.4001 28.2201 28.6901 27.2501 28.3701C26.0301 27.9701 25.5601 26.8301 25.1101 25.7201L23.0001 20.6301C22.7601 20.0401 22.6601 19.3901 22.8001 18.7701C23.0201 17.7701 23.6901 16.9901 24.6001 16.6201C24.6301 16.6101 24.6801 16.5901 24.7201 16.5601L24.7901 16.5401C25.1101 16.3901 25.2701 16.0401 25.1701 15.7101C25.0701 15.4101 24.7301 15.1301 24.0001 15.2801C21.8801 16.1701 20.8001 18.4701 21.4501 20.6601C21.3201 20.9301 21.2001 21.2001 21.1101 21.4801L20.5301 19.9101C19.9401 18.3001 18.7001 16.9601 17.1301 16.2501C17.0601 16.2201 16.9901 16.1901 16.9201 16.1601C16.4501 15.1101 15.6101 14.2901 14.5301 13.8601C13.4301 13.4101 12.2101 13.4201 11.1201 13.8801C9.00012 14.7701 7.92012 17.0701 8.57012 19.2601C7.76012 20.8701 7.66012 22.7601 8.28012 24.4501L15.1701 43.0001C15.3101 43.3801 15.7301 43.5701 16.1101 43.4301H16.1201C16.5001 43.2901 16.6901 42.8701 16.5501 42.4901L9.67013 23.9401C9.36013 23.1201 9.28013 22.2301 9.42013 21.3701L11.2301 25.7701C11.6101 26.7001 12.2601 27.5301 13.1401 28.0201C14.3501 28.6901 15.7601 28.7401 17.0001 28.1601C18.8901 27.2801 19.8101 24.7701 19.1601 22.7901L17.6701 18.3001C18.3401 18.8601 18.8601 19.5901 19.1601 20.4101L26.4301 40.9001C26.5701 41.2801 26.9901 41.4801 27.3701 41.3401H27.3801C27.7501 41.2001 27.9501 40.7901 27.8201 40.4101L22.5501 25.3301C22.2401 24.5101 22.1601 23.6201 22.3001 22.7601L24.1101 27.1601C24.4901 28.0901 25.1401 28.9201 26.0201 29.4101C27.2301 30.0801 28.6401 30.1301 29.8801 29.5501C31.7701 28.6701 32.6901 26.1601 32.0401 24.1901L31.4601 22.4401L31.9601 21.6401C31.9801 21.7001 32.0201 21.7501 32.0401 21.8101L36.9101 34.9301C37.0501 35.3101 37.4701 35.5001 37.8501 35.3601H37.8601C38.2401 35.2201 38.4301 34.8001 38.2901 34.4201L33.4001 21.3201C33.2601 20.9501 33.0801 20.5901 32.8401 20.2301L33.4901 19.1801C34.0301 18.0001 33.8701 16.6701 33.1501 15.6801C33.1901 15.6401 33.2401 15.6201 33.2701 15.5701L36.7001 10.6001L39.2601 12.3701C39.3801 12.4501 39.5201 12.4901 39.6601 12.4901C39.7001 12.4901 39.7501 12.4901 39.7901 12.4801C39.9701 12.4501 40.1401 12.3401 40.2401 12.1901L42.0001 9.62012C42.2101 9.29012 42.1301 8.86012 41.8101 8.64012ZM26.3901 19.4701L28.8401 16.2601C29.5401 15.5301 30.6701 15.4201 31.5201 16.0101C32.3601 16.5901 32.6501 17.6701 32.2701 18.5201L29.9501 22.2301L26.3901 19.4701ZM16.9201 26.4001C16.1201 27.1401 15.0301 27.3201 14.0101 26.8701C12.9301 26.3901 12.5701 25.3901 12.1901 24.3301C12.1001 24.0701 12.0001 23.8001 11.9001 23.5501L10.0801 19.1301C9.45012 17.6001 10.1901 15.8501 11.7201 15.2201C12.0901 15.0701 12.4701 14.9901 12.8601 14.9901C13.2501 14.9901 13.6401 15.0701 14.0201 15.2201C14.7601 15.5301 15.3301 16.1101 15.6401 16.8501C15.6701 16.9101 15.6901 16.9801 15.7101 17.0401L17.6301 22.8101V22.8201C18.1101 24.1701 17.8401 25.5401 16.9201 26.4001Z" />
</svg>
