<svg width="80" height="80" viewBox="0 0 80 80" fill="white" xmlns="http://www.w3.org/2000/svg">
<path d="M35.577 58.007L25.5884 61.1321L26.1083 62.7939L36.0969 59.6687L35.577 58.007Z" />
<path d="M34.9505 61.8602L28.2944 63.9426L28.8143 65.6044L35.4704 63.5219L34.9505 61.8602Z" />
<path d="M57.9022 59.2496L47.9136 62.3748L48.4335 64.0365L58.4221 60.9114L57.9022 59.2496Z" />
<path d="M73.779 11.614C73.346 11.2846 72.7248 11.3599 72.3954 11.8023L66.146 19.9811L57.2801 13.1482L63.5578 4.98816C63.8872 4.55522 63.8119 3.93404 63.3789 3.60463C62.946 3.26581 62.3248 3.35051 61.9954 3.78345L55.106 12.7246C54.7766 13.1576 54.8519 13.7787 55.2848 14.1082L59.4731 17.3364L53.139 25.2893C50.8801 24.0658 48.0848 24.3858 46.1084 26.2399L40.4707 32.8658C40.1225 33.2799 40.1695 33.9011 40.5742 34.2588L48.7531 41.2988C48.9225 41.4399 49.1295 41.5246 49.346 41.534C49.4025 41.534 49.459 41.534 49.5248 41.5246C49.7978 41.487 50.0519 41.3364 50.2119 41.1105L51.9342 38.6446C52.1225 39.3505 52.3107 40.1223 52.3578 40.3199C52.9413 42.6635 53.0072 45.3364 51.0966 47.087C49.6001 48.4611 47.3225 48.9411 45.4119 48.1976C43.0966 47.294 42.2966 45.1105 41.5343 42.9458C40.8378 40.9693 40.1413 38.9929 39.4542 37.007C39.0307 35.8023 38.6072 34.5882 38.1837 33.3835C37.1107 30.3246 38.7201 26.974 41.779 25.9011C42.1178 25.7788 41.779 25.8352 42.1178 25.7788C42.9366 25.4493 42.9084 24.0282 41.139 24.2729C37.4213 25.6093 35.3507 29.5717 36.3672 33.3929C35.8401 34.287 35.4354 35.247 35.1719 36.2446L33.8542 32.0188C32.9601 29.1482 30.9554 26.7482 28.2919 25.3552C28.1225 25.2705 27.9531 25.1858 27.7837 25.1011C26.3531 21.1482 21.9954 19.0964 18.0425 20.527C14.3248 21.8635 12.2543 25.8258 13.2707 29.647C11.6425 32.4046 11.2566 35.727 12.2166 38.7858L23.1531 73.7505L24.819 73.2329L13.8731 38.2964C13.2331 36.2446 13.299 34.0329 14.0613 32.0282L17.4872 41.7693C18.8048 45.5152 22.9084 47.4917 26.6542 46.174C30.2213 44.9223 32.2072 41.1199 31.2095 37.4776L28.4707 27.5199C30.2495 28.734 31.5578 30.5129 32.1978 32.5646L43.6519 71.0682L45.3178 70.5505L36.9884 42.0329C36.3484 39.9811 36.4142 37.7693 37.1766 35.7646L40.6025 45.5058C41.9201 49.2517 46.0237 51.2282 49.7695 49.9105C53.3366 48.6588 55.3225 44.8564 54.3248 41.214L53.1484 36.9411L54.6542 34.7858C54.9084 35.2658 55.1437 35.7646 55.3037 36.3011L63.1154 61.2799L64.7813 60.7623L56.9695 35.7835C56.6778 34.8517 56.2354 33.9952 55.7084 33.1952C56.8095 30.9364 56.386 28.2823 54.7201 26.494L61.0542 18.5411L65.7413 22.1458C65.9013 22.2682 66.099 22.3435 66.2966 22.3529C66.3531 22.3529 66.4189 22.3529 66.4754 22.3435C66.7389 22.3058 66.9742 22.174 67.1342 21.967L73.986 13.007C74.2966 12.5646 74.2119 11.9435 73.779 11.614ZM29.1954 36.7529C30.8707 42.2493 26.0801 46.4846 21.666 44.254C19.106 42.9552 18.7954 40.2352 17.9484 37.807C17.1578 35.5576 16.3672 33.3176 15.5766 31.0682C15.4072 30.5976 15.2472 30.127 15.0778 29.6564C14.0048 26.5976 15.6143 23.247 18.6731 22.174C21.7319 21.1011 25.0825 22.7105 26.1554 25.7693C26.2025 25.8917 26.2401 26.0235 26.2778 26.1458C26.2684 26.1552 29.1954 36.7529 29.1954 36.7529ZM49.2142 39.087L42.6166 33.4023L47.539 27.6046C48.9695 26.2588 51.1719 26.1646 52.7531 27.3788C54.2966 28.5646 54.7672 30.6729 53.8919 32.4046L49.2142 39.087Z" />
</svg>
