<svg width="62" height="62" viewBox="0 0 62 62" fill="none" stroke="white"  xmlns="http://www.w3.org/2000/svg">
<path d="M18.8212 60.8929H3.32122C2.10336 60.8929 1.10693 59.8964 1.10693 58.6786V25.4643C1.10693 18.135 7.06336 12.1786 14.3926 12.1786C18.8434 12.1786 22.7848 14.3707 25.1762 17.7143"  stroke-width="2" stroke-miterlimit="10" stroke-linecap="round" stroke-linejoin="round"/>
<path d="M9.96387 12.9536V5.53577H18.821V12.9536"  stroke-width="2" stroke-miterlimit="10" stroke-linecap="round" stroke-linejoin="round"/>
<path d="M16.6068 1.10718H12.1782V5.53575H16.6068V1.10718Z"  stroke-width="2" stroke-miterlimit="10" stroke-linecap="round" stroke-linejoin="round"/>
<path d="M9.96387 1.10718H25.4639L27.6782 3.32146"  stroke-width="2" stroke-miterlimit="10" stroke-linecap="round" stroke-linejoin="round"/>
<path d="M5.53564 38.8165L7.74993 37.5544C8.79064 37.0894 10.0085 37.2444 10.8942 37.9751L13.2856 39.9236L10.9606 40.9644C9.91993 41.4294 8.70207 41.2744 7.81636 40.5436L5.53564 38.8165Z"  stroke-width="2" stroke-miterlimit="10" stroke-linecap="round" stroke-linejoin="round"/>
<path d="M20.4821 36.6907L20.2607 39.2371C20.15 40.3664 19.4193 41.3628 18.3564 41.7835L15.5 42.9128L15.7214 40.3664C15.8321 39.2371 16.5629 38.2407 17.6257 37.82L20.4821 36.6907Z"  stroke-width="2" stroke-miterlimit="10" stroke-linecap="round" stroke-linejoin="round"/>
<path d="M10.4734 28.2543C11.3148 26.7929 12.1784 25.5308 12.1784 25.5308C12.1784 25.5308 13.0419 26.7929 13.8834 28.2543L15.4998 26.6379V32.1736C15.4998 34.0115 14.0162 35.4951 12.1784 35.4951C10.3405 35.4951 8.85693 34.0115 8.85693 32.1736V26.6379L10.4734 28.2543Z"  stroke-width="2" stroke-miterlimit="10" stroke-linecap="round" stroke-linejoin="round"/>
<path d="M23.2497 45.393H21.0354C16.0532 44.8394 12.1782 40.6101 12.1782 35.4951"  stroke-width="2" stroke-miterlimit="10" stroke-linecap="round"/>
<path d="M54.2499 56.4644H36.5356V60.8929H54.2499V56.4644Z"  stroke-width="2" stroke-miterlimit="10" stroke-linecap="round" stroke-linejoin="round"/>
<path d="M54.2498 56.4643H36.5355L32.1069 47.6072H58.6784L54.2498 56.4643Z"  stroke-width="2" stroke-miterlimit="10" stroke-linecap="round" stroke-linejoin="round"/>
<path d="M58.6783 47.6072H32.1069C30.889 47.6072 29.8926 46.6107 29.8926 45.3929C29.8926 44.175 30.889 43.1786 32.1069 43.1786H58.6783C59.8961 43.1786 60.8926 44.175 60.8926 45.3929C60.8926 46.6107 59.8961 47.6072 58.6783 47.6072Z"  stroke-width="2" stroke-miterlimit="10" stroke-linecap="round" stroke-linejoin="round"/>
<path d="M32.1071 60.8929H25.4643C24.2464 60.8929 23.25 59.8965 23.25 58.6786V34.3215C23.25 33.1036 24.2464 32.1072 25.4643 32.1072H34.3214C35.5393 32.1072 36.5357 33.1036 36.5357 34.3215V38.75"  stroke-width="2" stroke-miterlimit="10" stroke-linecap="round" stroke-linejoin="round"/>
<path d="M34.321 27.6786H25.4639V32.1072H34.321V27.6786Z"  stroke-width="2" stroke-miterlimit="10" stroke-linecap="round" stroke-linejoin="round"/>
<path d="M29.8925 16.6072L32.1068 27.6786H27.6782L29.8925 16.6072Z"  stroke-width="2" stroke-miterlimit="10" stroke-linecap="round" stroke-linejoin="round"/>
<path d="M54.2497 25.4643L52.0354 1.10718L49.8212 25.4643H47.6069C46.389 25.4643 45.3926 26.4607 45.3926 27.6786V32.1072H58.6783V27.6786C58.6783 26.4607 57.6819 25.4643 56.464 25.4643H54.2497Z"  stroke-width="2" stroke-miterlimit="10" stroke-linecap="round" stroke-linejoin="round"/>
<path d="M43.1782 38.75C44.5954 37.3329 45.3925 35.4065 45.3925 33.4136V32.1072H58.6782V33.4136C58.6782 35.4286 57.8811 37.3329 56.4639 38.75H43.1782Z"  stroke-width="2" stroke-miterlimit="10" stroke-linecap="round" stroke-linejoin="round"/>
<path d="M49.1348 36.5358C48.7584 37.3551 48.2491 38.1079 47.6069 38.75"  stroke-width="2" stroke-miterlimit="10" stroke-linecap="round" stroke-linejoin="round"/>
<path d="M54.6704 36.5358C54.294 37.3551 53.7847 38.1079 53.1426 38.75"  stroke-width="2" stroke-miterlimit="10" stroke-linecap="round" stroke-linejoin="round"/>
</svg>
