<svg width="48" height="48" viewBox="0 0 48 48" fill="black" xmlns="http://www.w3.org/2000/svg">
<path d="M43.0799 13.33C43.0899 13.21 43.0699 13.07 43.0199 12.96C42.8699 12.63 42.4799 12.44 42.1499 12.55L29.3399 16.2L32.9999 4.32003C33.0299 4.26003 33.0299 4.22003 33.0399 4.16003C33.0699 3.83003 32.8899 3.51003 32.5899 3.36003C32.2099 3.20003 31.7899 3.31003 31.5799 3.65003L21.8899 18.34L21.8599 18.35L13.5699 20.72C13.4999 20.74 13.4299 20.79 13.3699 20.83L13.3199 20.87L13.2799 20.82C12.0099 19.54 10.1699 19.04 8.46993 19.53C7.21993 19.89 6.17993 20.71 5.53993 21.86C4.89993 23 4.74993 24.32 5.10993 25.57C5.84993 28.16 8.55993 29.66 11.1499 28.92C12.3999 28.56 13.4399 27.73 14.0799 26.59C14.4099 26 14.6099 25.37 14.6699 24.71L14.6799 24.65L20.8599 24.26L20.8499 24.35L20.2499 31.58L20.1899 31.59C20.1399 31.6 20.0899 31.6 20.0399 31.61C19.8899 31.63 19.7499 31.65 19.6099 31.69C18.3599 32.05 17.3199 32.87 16.6799 34.02C16.0499 35.16 15.8899 36.48 16.2499 37.73C16.9899 40.32 19.6999 41.82 22.2899 41.08C23.5399 40.72 24.5799 39.89 25.2199 38.75C25.5499 38.16 25.7499 37.52 25.8099 36.86C25.8699 36.25 25.8099 35.64 25.6399 35.04C25.3999 34.2 24.9399 33.46 24.2699 32.83L24.2299 32.8L24.2499 32.75C24.2599 32.73 24.2699 32.72 24.2699 32.71L24.5699 31.79L27.0199 23.76H27.0699L27.0799 23.75L42.7099 13.87C42.9399 13.74 43.0599 13.56 43.0799 13.33ZM12.5699 25.76C12.1599 26.5 11.4899 27.03 10.6699 27.27C10.3799 27.35 10.0899 27.39 9.79993 27.39C8.41993 27.39 7.14993 26.48 6.75993 25.1C6.64993 24.72 6.60993 24.32 6.64993 23.92C6.77993 22.62 7.66993 21.54 8.92993 21.18C9.73993 20.95 10.5999 21.05 11.3299 21.46C12.0699 21.87 12.5999 22.54 12.8399 23.35C13.0699 24.17 12.9799 25.02 12.5699 25.76ZM29.8499 9.16003L27.5199 16.71L24.2299 17.66L29.8499 9.16003ZM23.7199 37.92C23.3099 38.66 22.6399 39.19 21.8199 39.43C21.5299 39.51 21.2399 39.55 20.9499 39.55C19.5699 39.55 18.2999 38.64 17.9099 37.26C17.7999 36.88 17.7599 36.48 17.7999 36.08C17.9299 34.78 18.8199 33.7 20.0799 33.34C20.8899 33.11 21.7499 33.21 22.4799 33.62C23.2199 34.03 23.7499 34.7 23.9899 35.51C24.2199 36.33 24.1199 37.18 23.7199 37.92ZM25.2599 24.06L22.8599 31.91L22.7799 31.88C22.4999 31.77 22.2099 31.68 21.8999 31.62L21.8399 31.61L21.8899 30.97L22.4699 24.16L25.2899 23.96L25.2599 24.06ZM26.4299 22.43L25.7099 22.47L14.5499 23.18L14.5399 23.12C14.5299 23.08 14.5199 23.04 14.5199 23.01C14.5099 22.97 14.5099 22.93 14.4999 22.88C14.4299 22.62 14.3199 22.38 14.2099 22.15L14.1699 22.07L26.8799 18.42L28.8799 17.86L37.6199 15.36L26.4299 22.43Z" />
</svg>
