<svg width="80" height="80" viewBox="0 0 80 80" fill="white" xmlns="http://www.w3.org/2000/svg">
<path d="M64.3951 30.2212C63.9151 29.873 52.4798 21.6377 43.8304 21.6377H43.661C35.0304 21.7412 7.64216 38.9177 6.48451 39.6518C6.24921 39.8024 6.09863 40.0565 6.07039 40.3389C6.05157 40.6212 6.16451 40.8942 6.37157 41.073L10.0422 44.2259C10.2022 44.3671 10.4092 44.4424 10.6163 44.4424C10.7951 44.4424 10.9739 44.3859 11.1151 44.2824C12.1127 43.6048 35.548 27.6142 43.6704 27.6142C51.868 27.633 63.0963 31.5953 63.5763 31.7648C63.9904 31.9153 64.4516 31.7365 64.6586 31.3506C64.8657 30.9648 64.7528 30.4753 64.3951 30.2212ZM57.7033 28.113C53.6939 27.0306 48.2822 25.8542 43.661 25.8448C35.5857 25.8448 14.9457 39.5483 10.6822 42.4471L8.44216 40.5177C13.3739 37.4777 36.4327 23.4918 43.6892 23.4071C43.7457 23.4071 43.8116 23.4071 43.868 23.4071C48.2728 23.4071 53.6751 25.8542 57.7033 28.113Z" />
<path d="M62.7763 55.2941C60.0469 55.0399 58.4281 52.9035 57.6845 51.5952C58.7481 51.1811 59.7645 50.8705 60.7245 50.7482H61.7787C62.2681 50.7482 62.6634 50.3529 62.6634 49.8635C62.6634 49.3741 62.2681 48.9788 61.7787 48.9788L60.6116 48.9882C57.0916 49.4493 53.2328 51.6705 49.1387 54.0235C44.4798 56.7058 39.6704 59.4729 35.4163 59.4917H35.3222C27.3316 59.4917 14.3245 54.3435 14.1928 54.2964C13.9669 54.2023 13.7128 54.2117 13.4963 54.3152L9.74101 56.0658C9.52454 56.1693 9.36454 56.3388 9.27983 56.5646C9.19513 56.7905 9.20454 57.0258 9.30807 57.2423C9.51513 57.6846 10.0422 57.8729 10.4845 57.6752L13.8916 56.0846C16.0657 56.9223 26.0234 60.6399 33.534 61.1952C33.7692 63.2752 34.7198 66.7199 38.3716 67.5576C38.4375 67.5764 38.5034 67.5764 38.5692 67.5764C38.9834 67.5764 39.341 67.294 39.4351 66.8893C39.5481 66.4188 39.2469 65.9388 38.7669 65.8258C36.3481 65.2705 35.5575 63.0211 35.3222 61.2611H35.4069C37.1198 61.2517 38.8704 60.8658 40.6492 60.2352C41.8728 62.5129 44.574 66.5035 48.9034 67.5388C48.9692 67.5576 49.0445 67.567 49.1104 67.567C49.5245 67.567 49.8728 67.2846 49.9669 66.8893C50.0234 66.6635 49.9857 66.4188 49.8634 66.2211C49.741 66.0235 49.5434 65.8823 49.3175 65.8258C45.7598 64.9693 43.4351 61.6376 42.3057 59.5858C43.7834 58.9552 45.2704 58.2023 46.7481 57.3929C47.8869 59.9152 51.0681 65.6752 56.5081 66.3811C56.5457 66.3811 56.5834 66.3905 56.621 66.3905C57.0634 66.3905 57.4398 66.0611 57.4963 65.6188C57.5622 65.1388 57.214 64.687 56.734 64.6305C52.0751 64.0282 49.261 58.7199 48.2916 56.5364C48.8657 56.2164 49.4304 55.887 50.0045 55.5576C50.541 55.247 51.0775 54.9458 51.6045 54.6446C52.3857 56.7246 54.5881 61.1388 59.4822 62.0893C59.5387 62.0988 59.5951 62.1082 59.6516 62.1082C60.0751 62.1082 60.4422 61.807 60.5175 61.3929C60.5645 61.1576 60.5175 60.9223 60.3857 60.7246C60.254 60.527 60.0563 60.3952 59.821 60.3482C55.6422 59.5388 53.7881 55.5199 53.1857 53.8258C53.1763 53.807 53.1575 53.7882 53.1481 53.7693C54.1363 53.2235 55.0963 52.7341 56.0281 52.2917C56.894 53.8729 58.9363 56.7058 62.5881 57.0446C62.6163 57.0446 62.6445 57.0446 62.6728 57.0446C63.1339 57.0446 63.5104 56.6964 63.5481 56.2446C63.5669 56.0093 63.501 55.7835 63.3504 55.5952C63.1998 55.407 63.0116 55.3223 62.7763 55.2941Z" />
<path d="M22.2585 44.2541C22.3432 44.1883 30.475 37.9294 38.5597 38.1365C46.7008 38.353 52.6208 42.0424 52.8655 42.2024C53.2797 42.4659 53.8255 42.3435 54.0891 41.9388C54.3526 41.5247 54.2302 40.9788 53.8255 40.7153C53.562 40.5459 47.3314 36.6024 38.6161 36.3671C38.4467 36.3671 38.2773 36.3577 38.1079 36.3577C29.5055 36.3577 21.515 42.5977 21.1761 42.8706C20.9879 43.0212 20.875 43.2283 20.8467 43.4635C20.8185 43.6988 20.8844 43.9341 21.035 44.113C21.2044 44.3294 21.4585 44.4518 21.7314 44.4518C21.9102 44.4424 22.0985 44.3765 22.2585 44.2541Z" />
<path d="M68.2633 58.9364L66.5221 50.6635L66.8044 50.3811C66.9833 50.3435 67.1621 50.2682 67.3033 50.1364L69.7033 47.7553L72.1033 45.3741C72.2915 45.1858 72.395 44.9411 72.395 44.6776C72.395 44.4141 72.2915 44.16 72.1127 43.9811L70.1362 41.9953C70.0421 41.9011 69.9386 41.8353 69.8162 41.7788L66.6633 40.4611L65.3644 37.2988C65.3174 37.1764 65.2421 37.0729 65.148 36.9788L62.748 34.56C62.5597 34.3717 62.315 34.2682 62.0515 34.2682C61.788 34.2682 61.5433 34.3717 61.355 34.5506L61.1197 34.7858L59.6891 33.3458C59.5668 33.2235 59.4162 33.1388 59.2562 33.0917L55.2186 31.9623C55.1997 31.9529 55.1715 31.9623 55.1527 31.9529C55.0868 31.9435 55.0209 31.9341 54.955 31.9341C54.8891 31.9341 54.8233 31.9341 54.7574 31.9435C54.7386 31.9435 54.7197 31.9435 54.6915 31.9435C54.6539 31.9529 54.6256 31.9811 54.588 31.9906C54.5221 32.0188 54.4562 32.047 54.3997 32.0847C54.3527 32.1223 54.3056 32.16 54.268 32.1976C54.2209 32.2447 54.1833 32.2917 54.1456 32.3388C54.108 32.3953 54.0797 32.4517 54.0515 32.5176C54.0327 32.5553 54.0139 32.5835 53.995 32.6211C53.9856 32.64 53.995 32.6682 53.9856 32.687C53.9762 32.7529 53.9762 32.8188 53.9668 32.8847C53.9668 32.9506 53.9668 33.0164 53.9762 33.0823C53.9762 33.1011 53.9762 33.1294 53.9762 33.1482L55.0774 37.1953C55.1244 37.3647 55.2092 37.5153 55.3315 37.6282L56.7621 39.0682L56.5268 39.2941C56.1409 39.68 56.1409 40.3011 56.5174 40.687L58.9174 43.1058C59.0115 43.2 59.115 43.2658 59.2374 43.3223L62.3903 44.64L63.6891 47.8023C63.7362 47.9247 63.8115 48.0282 63.9056 48.1223L65.0633 49.2894L64.6209 49.7317C64.3856 49.9576 64.2915 50.287 64.348 50.607C64.3762 50.7764 64.4515 50.9364 64.5644 51.0682L66.3621 59.6235C66.3997 59.8117 66.4939 59.9811 66.6256 60.1129L70.6821 64.1976C70.8797 64.3953 71.1244 64.4894 71.3786 64.4894C71.6327 64.4894 71.8774 64.3953 72.075 64.207C72.4609 63.8211 72.4609 63.2 72.0844 62.8141L68.2633 58.9364ZM56.9503 36.4235L56.3762 34.3058L58.4939 34.8988L59.7456 36.16L58.9833 36.9223L58.2115 37.6847L56.9503 36.4235ZM63.5668 42.9929L60.2256 41.5906L58.6539 40.0094L58.8703 39.7929C58.8797 39.7835 58.8797 39.7835 58.8891 39.7741L60.3574 38.3153L62.0609 36.6306L63.6327 38.2117L65.0068 41.5717C65.1103 41.8164 65.2986 42.0047 65.5339 42.1082L68.875 43.5106L70.0139 44.6588L68.3103 46.3435L66.7009 47.9435C66.6539 47.9529 66.5974 47.9529 66.5503 47.9717L65.468 46.88L64.0939 43.52C63.9997 43.2847 63.8115 43.0964 63.5668 42.9929Z" />
</svg>
