<svg width="28" height="28" viewBox="0 0 28 28" fill="none" xmlns="http://www.w3.org/2000/svg">
<path d="M13.9915 0.666626C11.3545 0.666626 8.7766 1.44861 6.58394 2.9137C4.39128 4.37878 2.68232 6.46116 1.67315 8.89751C0.66398 11.3339 0.399936 14.0148 0.914405 16.6012C1.42888 19.1876 2.69875 21.5634 4.56345 23.4281C6.42815 25.2928 8.80392 26.5626 11.3903 27.0771C13.9768 27.5916 16.6576 27.3275 19.094 26.3184C21.5303 25.3092 23.6127 23.6002 25.0778 21.4076C26.5429 19.2149 27.3249 16.637 27.3249 14C27.3249 12.249 26.98 10.5152 26.3099 8.89751C25.6399 7.27984 24.6577 5.80998 23.4196 4.57187C22.1815 3.33375 20.7117 2.35163 19.094 1.68157C17.4763 1.0115 15.7425 0.666626 13.9915 0.666626ZM18.2315 20.8693C18.1818 20.9939 18.1059 21.1063 18.0091 21.1992C17.9123 21.292 17.7967 21.363 17.6702 21.4075C17.5436 21.4519 17.409 21.4688 17.2754 21.4569C17.1418 21.445 17.0123 21.4047 16.8955 21.3386L13.2755 18.5253L10.9529 20.6693C10.899 20.7091 10.8359 20.7347 10.7695 20.7438C10.7031 20.7529 10.6355 20.7452 10.5729 20.7213L11.0182 16.736L11.0315 16.748L11.0409 16.6693C11.0409 16.6693 17.5542 10.7386 17.8195 10.4866C18.0889 10.2346 17.9995 10.18 17.9995 10.18C18.0155 9.87329 17.5182 10.18 17.5182 10.18L8.88754 15.732L5.29421 14.508C5.29421 14.508 4.74221 14.3106 4.69021 13.8746C4.63554 13.4426 5.31154 13.208 5.31154 13.208L19.6009 7.53063C19.6009 7.53063 20.7755 7.00796 20.7755 7.87463L18.2315 20.8693Z" fill="#FA835F"/>
</svg>
