<svg width="27" height="27" viewBox="0 0 27 27" fill="none" xmlns="http://www.w3.org/2000/svg">
<path d="M13.335 5.40544C9.00708 5.40544 5.48878 8.92373 5.48283 13.2517C5.48283 14.734 5.89955 16.1806 6.68536 17.4248L6.86991 17.7225L6.07814 20.6157L9.04875 19.8358L9.3345 20.0085C10.537 20.7228 11.9182 21.1038 13.329 21.1038H13.335C17.657 21.1038 21.2705 17.5855 21.2705 13.2576C21.2705 11.1621 20.3656 9.19162 18.8833 7.7093C17.395 6.22102 15.4305 5.40544 13.335 5.40544ZM17.9487 16.6211C17.7522 17.1748 16.8116 17.6748 16.3592 17.7403C15.6091 17.8534 15.0257 17.7939 13.5315 17.151C11.1681 16.127 9.62025 13.7458 9.50119 13.591C9.38212 13.4362 8.53678 12.3111 8.53678 11.1502C8.53678 9.98934 9.144 9.41784 9.36427 9.17972C9.57858 8.94159 9.83456 8.88206 9.9953 8.88206C10.1501 8.88206 10.3108 8.88206 10.4477 8.88802C10.5906 8.89397 10.7871 8.83444 10.9776 9.29283C11.174 9.76313 11.6443 10.924 11.7038 11.043C11.7634 11.1621 11.805 11.299 11.7217 11.4538C11.2693 12.3587 10.7871 12.323 11.0311 12.7397C11.942 14.3054 12.8528 14.8471 14.2399 15.5436C14.478 15.6627 14.6149 15.6448 14.7518 15.4841C14.8888 15.3293 15.3412 14.7935 15.496 14.5613C15.6508 14.3232 15.8115 14.3649 16.0258 14.4423C16.2401 14.5197 17.401 15.0912 17.6391 15.2102C17.8772 15.3293 18.032 15.3888 18.0915 15.4841C18.1451 15.5972 18.1451 16.0734 17.9487 16.6211ZM23.8125 0H2.8575C1.27992 0 0 1.27992 0 2.8575V23.8125C0 25.3901 1.27992 26.67 2.8575 26.67H23.8125C25.3901 26.67 26.67 25.3901 26.67 23.8125V2.8575C26.67 1.27992 25.3901 0 23.8125 0ZM13.329 22.6933C11.7455 22.6933 10.1918 22.2945 8.81658 21.5444L3.81 22.86L5.14945 17.9665C4.32197 16.5378 3.88739 14.9126 3.88739 13.2457C3.89334 8.04267 8.12601 3.81 13.329 3.81C15.8532 3.81 18.2225 4.79227 20.0085 6.5782C21.7884 8.36414 22.86 10.7335 22.86 13.2576C22.86 18.4606 18.5321 22.6933 13.329 22.6933Z" fill="#FA835F"/>
</svg>
